<svg xmlns="http://www.w3.org/2000/svg" width="276.542" height="473.094" viewBox="0 0 276.542 473.094" aria-hidden="true"><defs><clipPath id="introduction-mobile_svg__b"><rect data-name="Rectangle 226" width="198.266" height="311.999" rx="4.024" fill="none"/></clipPath><clipPath id="introduction-mobile_svg__c"><path data-name="Path 7023" d="M312.346,464.122s-.539,26.126-12.031,35.464c0,0-10.864,6.195-21.279-13.827l-2.334-24.69,7.542-4.71,25.678,1.747Z" transform="translate(-276.702 -456.359)" fill="none"/></clipPath><clipPath id="introduction-mobile_svg__e"><path data-name="Path 7063" d="M316.939,653.479s.74-4.025,4.289-10.593c2.1-3.893,4.162-1.38,3.4,1.781-1,4.143-1.069,8.979,2.267,10.767s17.082-3.157,22.511,4.776c2.16,3.155-5.137,8.547-16.789,11.86-11.892,3.381-18.6,2.18-22.938-2.933l-7.967-6.076.357-1.005a21.29,21.29,0,0,1,10.858-12.078h0Z" transform="translate(-301.712 -640.904)" fill="none"/></clipPath><linearGradient id="introduction-mobile_svg__d" x1="12.292" y1="-1.595" x2="12.292" y2=".388" gradientUnits="objectBoundingBox"><stop offset="0" stop-color="#ffd561"/><stop offset=".768" stop-color="#ffbc46"/><stop offset="1" stop-color="#ffb43d"/></linearGradient><filter id="introduction-mobile_svg__a" x="0" y="0" width="270.571" height="473.094" filterUnits="userSpaceOnUse"><feOffset/><feGaussianBlur stdDeviation="3" result="blur"/><feFlood flood-opacity=".2"/><feComposite operator="in" in2="blur"/><feComposite in="SourceGraphic"/></filter></defs><g data-name="Group 3627"><g data-name="Group 3625"><g transform="translate(-142.094 -321.317) translate(151.094 330.317) matrix(1, 0, 0, 1, -9, -9)" filter="url(#introduction-mobile_svg__a)"><path data-name="Path 7005" d="M306.592,334.974h-2.722v-84a20.7,20.7,0,0,0-20.7-20.7H81.545a20.7,20.7,0,0,0-20.7,20.7v46.165h-4.31a1.025,1.025,0,0,0-1.025,1.025v18.074a1.025,1.025,0,0,0,1.025,1.025h4.31v17.713H56.558a1.048,1.048,0,0,0-1.048,1.048l0,34.343a1.049,1.049,0,0,0,1.049,1.049h4.29v9.837H56.554A1.048,1.048,0,0,0,55.51,382.3l0,34.341a1.048,1.048,0,0,0,1.049,1.048h4.29V664.667a20.7,20.7,0,0,0,20.7,20.7H283.171a20.7,20.7,0,0,0,20.7-20.7V381.256h2.722a1.486,1.486,0,0,0,1.486-1.486V336.46A1.486,1.486,0,0,0,306.592,334.974Z" transform="translate(-46.51 -221.27)" fill="#fff"/></g><g data-name="restaurant body" transform="translate(-142.094 -321.317) translate(166.083 336.996)"><g data-name="Group 416"><rect data-name="Rectangle 225" width="223.407" height="436.316" rx="13" fill="#ffc494" transform="translate(0 2.877)"/></g><g data-name="Group 422"><g data-name="Group 418"><g data-name="Group 417" fill="#efefe5"><path data-name="Path 843" d="M93.024,265.254a1.111,1.111,0,0,0,1.133.642c1.239,0,1.7-1.2,1.663-2.67h-.061a1.719,1.719,0,0,1-1.711,1.035,2.176,2.176,0,0,1-2.246-2.1,1.926,1.926,0,0,1,.006-.232,2.305,2.305,0,0,1,2.218-2.388h0a2.055,2.055,0,0,1,.256.006c1.271,0,2.546.756,2.546,3.508,0,2.484-.866,3.766-2.688,3.766a1.942,1.942,0,0,1-2.152-1.563Zm1.2-4.786a1.362,1.362,0,0,0-1.39,1.333h0c0,.042,0,.085,0,.126a1.4,1.4,0,0,0,1.348,1.456h0a1.4,1.4,0,0,0,1.457-1.347v0h0v-.085a1.369,1.369,0,0,0-1.251-1.477h0a1.421,1.421,0,0,0-.169,0Z" transform="translate(9.174 12.785) translate(0 0.022) translate(-91.8 -259.54)"/><path data-name="Path 844" d="M102.43,262.882a.791.791,0,0,1,.067,1.579h-.064a.793.793,0,0,1-.761-.823h0A.791.791,0,0,1,102.43,262.882Zm0,3.434a.768.768,0,0,1,.793.742h0v.056a.782.782,0,0,1-1.563-.033h0a.781.781,0,0,1,.77-.762Z" transform="translate(9.174 12.785) translate(0 0.022) translate(-95.095 -260.657)"/><path data-name="Path 845" d="M110.45,259.764v4.673h.9v.947h-.9v1.374h-1v-1.37h-3.4v-.97c.86-1.557,1.88-3.107,2.856-4.659Zm-1,4.673v-3.759H109.4c-.783,1.176-1.619,2.475-2.326,3.714v.047Z" transform="translate(9.174 12.785) translate(0 0.022) translate(-96.563 -259.613)"/><path data-name="Path 846" d="M117.506,266.76v-5.847h-.051l-1.615,1.154v-1.091l1.664-1.214h1.039v7Z" transform="translate(9.174 12.785) translate(0 0.022) translate(-99.835 -259.614)"/></g></g><g data-name="Group 419" transform="translate(9.174 12.785) translate(192.705)" fill="#efefe5"><path data-name="Path 847" d="M393.582,259.506H382.807a1.571,1.571,0,0,0-1.569,1.571v4.2a1.571,1.571,0,0,0,1.569,1.57h10.781a1.573,1.573,0,0,0,1.569-1.57v-4.2a1.572,1.572,0,0,0-1.573-1.571h0Zm.942,5.774a.946.946,0,0,1-.942.943H382.807a.944.944,0,0,1-.942-.943v-4.2a.944.944,0,0,1,.941-.943h10.781a.944.944,0,0,1,.942.943Z" transform="translate(-381.238 -259.506)" style="isolation:isolate" opacity=".4"/><rect data-name="Rectangle 228" width="11.413" height="4.837" rx=".408" transform="translate(1.248 1.255)"/><path data-name="Path 848" d="M403.968,264.6a.845.845,0,0,1-.845.845h0v-1.692A.848.848,0,0,1,403.968,264.6Z" transform="translate(-388.552 -260.925)"/></g><g data-name="Group 420" fill="#f9f9f0"><path data-name="Rectangle 229" d="M353.7,260.656h.945a.315.315,0,0,1,.316.316h0v6.353a.314.314,0,0,1-.314.315H353.7a.317.317,0,0,1-.316-.315v-6.353a.315.315,0,0,1,.316-.316h0Z" transform="translate(9.174 12.785) translate(165.509 0.766) translate(-344.732 -260.656)"/><path data-name="Rectangle 230" d="M349.367,263.215h.946a.315.315,0,0,1,.315.314h0v4.65a.315.315,0,0,1-.316.316h-.945a.315.315,0,0,1-.316-.316h0v-4.649a.315.315,0,0,1,.316-.316Z" transform="translate(9.174 12.785) translate(165.509 0.766) translate(-343.285 -261.511)"/><path data-name="Rectangle 231" d="M345.037,265.345h.946a.314.314,0,0,1,.316.312h0v3.23a.315.315,0,0,1-.316.316h-.944a.316.316,0,0,1-.316-.316h0v-3.228A.317.317,0,0,1,345.037,265.345Z" transform="translate(9.174 12.785) translate(165.509 0.766) translate(-341.838 -262.223)"/><path data-name="Rectangle 232" d="M340.706,267.047h.946a.314.314,0,0,1,.314.314h0v2.1a.315.315,0,0,1-.316.316h-.944a.315.315,0,0,1-.316-.316h0v-2.093a.315.315,0,0,1,.314-.316h0Z" transform="translate(9.174 12.785) translate(165.509 0.766) translate(-340.39 -262.792)"/></g><g data-name="Group 421" fill-rule="evenodd" fill="#f9f9f0"><path data-name="Path 849" d="M362.274,263.817l-1.26-1.226a6.982,6.982,0,0,1,9.8,0l-1.237,1.246a5.267,5.267,0,0,0-7.307-.024Z" transform="translate(9.174 12.785) translate(179.24 0.717) translate(-361.014 -260.583)"/><path data-name="Path 850" d="M364.976,266.936l-1.246-1.218a4.41,4.41,0,0,1,6.159-.018l-1.218,1.246A2.733,2.733,0,0,0,364.976,266.936Z" transform="translate(9.174 12.785) translate(179.24 0.717) translate(-361.922 -261.877)"/><path data-name="Path 851" d="M368.97,268.887l-1.21,1.228c-.416-.407-.815-.81-1.22-1.214A1.8,1.8,0,0,1,368.97,268.887Z" transform="translate(9.174 12.785) translate(179.24 0.717) translate(-362.861 -263.203)"/></g></g><path data-name="Rectangle 233" d="M156.091,240.3H276.459v16.8a9.11,9.11,0,0,1-9.1,9.115H165.2a9.108,9.108,0,0,1-9.109-9.108h0Z" transform="translate(-104.113 -240.304)" fill="#fff"/><rect data-name="Rectangle 234" width="31.235" height="3.808" rx="1.904" transform="translate(95.401 9.902)" fill="#9b9b9b"/><circle data-name="Ellipse 139" cx="3.047" cy="3.047" r="3.047" transform="translate(140.349 8.377)" fill="#9b9b9b"/><g data-name="Connected with you"><g data-name="Group 3623" style="isolation:isolate" fill="#ad442f"><path data-name="Path 7125" d="M148.19,308.729c0-1.753,1.235-3.827,3.852-5.086a5.021,5.021,0,0,1-1.234-3.432c0-3.135,2.839-6.469,6.246-6.469,2.3,0,3.309,1.086,3.309,2.938,0,2.444-1.506,3.6-2.889,3.6-.543,0-.79-.2-.889-.445a4.574,4.574,0,0,0,.494-1.975c0-.938-.321-1.259-.716-1.259-.889,0-1.9,1.753-1.9,3.654a7.443,7.443,0,0,0,.445,2.468,9.811,9.811,0,0,1,1.827-.2c.938,0,1.185.271,1.185.617a2.774,2.774,0,0,1-2.37,2.79,3.1,3.1,0,0,1-1.654-.667,4.051,4.051,0,0,0-1.111,2.444,1.865,1.865,0,0,0,2.124,2.024c2.32,0,5.406-2.222,6.838-4.395.519,0,.938.2.938.79,0,1.581-4.32,6.888-9.505,6.888C150.092,313.025,148.19,311.273,148.19,308.729Z" transform="translate(-100.779 -254.639) translate(148.19 293.309) translate(-148.19 -293.447)"/><path data-name="Path 7126" d="M176.786,307.792a1.532,1.532,0,0,1,1.308,1.531c0,1.654-1.975,2.493-6.345,3.012a1.008,1.008,0,0,1-.642-.963c0-.691.346-1.062,1.531-1.482A13.12,13.12,0,0,0,176.786,307.792Z" transform="translate(-100.779 -254.639) translate(148.19 293.309) translate(-155.481 -297.917)"/><path data-name="Path 7127" d="M199.648,310.492c0,1.358-1.728,2.815-3.752,2.815-.938,0-1.383-.37-2-1.7-1.556-3.383-2.2-4.568-3.334-4.938a34.239,34.239,0,0,0-.839,4.74,1.477,1.477,0,0,1-1.234.445,2.56,2.56,0,0,1-2.346-2.419c0-.667.173-1.655,1.234-4.766.716-2.123,1.556-4.567,2.444-7.481a6.854,6.854,0,0,0-4.74,3.7,1.366,1.366,0,0,1-.568.123c-.667,0-1.062-.568-1.062-1.456,0-2.519,4.222-6.247,9.481-6.247,4.247,0,6.37,2.074,6.37,4.987,0,2.444-1.456,4.617-4.247,7.209a14.114,14.114,0,0,1,2.37,3.506c.3.593.543.741.914.741a5.612,5.612,0,0,0,1.013-.148A1.426,1.426,0,0,1,199.648,310.492Zm-4.32-10.888c0-1.308-.766-2.37-2.889-2.518a40.6,40.6,0,0,1-1.259,7.234,4.173,4.173,0,0,1,.814-.074,4.891,4.891,0,0,1,1.284.173C194.859,302.3,195.328,301.086,195.328,299.6Z" transform="translate(-100.779 -254.639) translate(148.19 293.309) translate(-159.408 -293.309)"/><path data-name="Path 7128" d="M207.817,310.76c0-3.728,3.037-7.53,5.432-7.53,1.7,0,2.642.815,2.642,2.543,0,2.074-1.21,3.679-4.592,4.445,0,1.111.222,1.728,1.185,1.728,1.679,0,3.852-1.432,5.259-3.58a.887.887,0,0,1,.938.815c0,1.827-4.123,5.752-7.333,5.752C208.928,314.933,207.817,313.427,207.817,310.76Zm4.814-4.938c-.345,0-1.012.839-1.184,2.568,1.382-.247,1.679-1.013,1.679-1.753C213.125,306.119,212.928,305.822,212.631,305.822Z" transform="translate(-100.779 -254.639) translate(148.19 293.309) translate(-167.16 -296.465)"/><path data-name="Path 7129" d="M223.926,312.914a3.593,3.593,0,0,1-3.728-3.753c0-1.456.4-3.852,1.605-3.852.864,0,1.555,1.111,1.555,1.728a1.947,1.947,0,0,1-.642,1.358,2.116,2.116,0,0,0,1.6,1.827.506.506,0,0,0,.519-.568c0-1.259-1.482-4.74-1.482-6.271a2.642,2.642,0,0,1,1.876-2.494,4.04,4.04,0,0,1-.074-.766,3.9,3.9,0,0,1,4.172-4.172,12.327,12.327,0,0,1,5.061,1.383,2.359,2.359,0,0,1,1.654-.815c.543,0,.963.247.963.815,0,.766-.889,2-1.729,4.617a17.386,17.386,0,0,0,2.123-.173,1.363,1.363,0,0,1,.469,1.036,1.524,1.524,0,0,1-1.432,1.654,9.8,9.8,0,0,1-1.8-.148,27.776,27.776,0,0,0-.865,4.469c0,.593.149.864.667.864,1.013,0,2.716-1.185,4.395-3.555a.95.95,0,0,1,.987.839c0,1.457-3.777,5.876-6.616,5.876-1.9,0-3.186-.988-3.186-3.259a22.49,22.49,0,0,1,1.186-5.357c-.494-.049-.914-.1-.914-.642a1.472,1.472,0,0,1,1.555-1.481c.37-.988.766-1.876,1.136-2.642a21.458,21.458,0,0,0-3.728-.568c-1.308,0-1.8.617-1.852,1.8,1.433,0,2.247.3,2.247,1.037,0,.938-1.012,2.346-1.95,2.346a2,2,0,0,1-1.456-.914,13.509,13.509,0,0,0,.567,1.259,11.352,11.352,0,0,1,1.482,4.618C228.3,311.581,226.37,312.914,223.926,312.914Z" transform="translate(-100.779 -254.639) translate(148.19 293.309) translate(-171.099 -294.15)"/><path data-name="Path 7130" d="M248.275,314.2c-1.407,0-2.444-1.16-2.444-3.407,0-3.7,3.062-7.58,5.531-7.58a.832.832,0,0,1,.642.173l.074-1.433a1.138,1.138,0,0,1,.864-.32,2.359,2.359,0,0,1,2.592,2,6.575,6.575,0,0,1-.271,1.629,28.236,28.236,0,0,0-1.185,5.309c0,.494.1.568.3.568.494,0,1.778-.938,3.358-3.16a.827.827,0,0,1,.914.765c0,1.605-4.1,5.58-5.876,5.58-1.086,0-1.778-.445-1.778-2.025a7.459,7.459,0,0,1,.074-.963C250.275,313.586,249.139,314.2,248.275,314.2Zm3.6-9.208a6.165,6.165,0,0,0-2.419,4.74c0,.914.3,1.012.642,1.012a1.38,1.38,0,0,0,.987-.617Z" transform="translate(-100.779 -254.639) translate(148.19 293.309) translate(-179.254 -295.958)"/><path data-name="Path 7131" d="M269.849,303.194a2.249,2.249,0,0,1,2.4,2,5.4,5.4,0,0,1-.469,1.926,40.448,40.448,0,0,0-1.556,4.172c0,.321.149.4.346.4.568,0,1.753-.987,3.333-3.21.519,0,1.013.321,1.013.765,0,.889-1.234,2.494-2.666,3.753a6.134,6.134,0,0,1-3.507,1.827c-1.012,0-1.629-.321-1.629-1.605a7.029,7.029,0,0,1,.148-1.284c-1.185,2.247-2.691,3.284-3.8,3.284-1.457,0-1.8-.839-1.8-2.321a11.983,11.983,0,0,1,.987-3.753,3.174,3.174,0,0,1-.321-1.531c0-1.531,2.37-4.3,4.1-4.3.766,0,1.185.247,1.185.987,0,.79-.642,2.272-1.9,4.321a9.266,9.266,0,0,0-.395,2.024c0,.395.148.642.494.642a3.514,3.514,0,0,0,1.7-1.111,24.723,24.723,0,0,0,1.308-6.518A1.322,1.322,0,0,1,269.849,303.194Z" transform="translate(-100.779 -254.639) translate(148.19 293.309) translate(-184.287 -296.454)"/><path data-name="Path 7132" d="M286.1,306.084a4.774,4.774,0,0,1-.667,1.877,9.025,9.025,0,0,0-1.062,2.963c0,.346.1.593.42.593.691,0,2.419-1.531,3.728-3.58a.942.942,0,0,1,1.037.765c0,1.555-4.221,5.951-6.493,5.951-1.506,0-2.345-.667-2.345-2.074,0-1.63,1.209-3.728,1.209-4.37,0-.3-.271-.445-.814-.667a14.681,14.681,0,0,1-2.148,3.235.94.94,0,0,1-.988-.963,1.04,1.04,0,0,1,.173-.592,12.211,12.211,0,0,0,1.531-2.543,1.466,1.466,0,0,1-.37-1.013c0-1.728,2.592-4.172,3.975-4.172.839,0,1.407.395,1.407,1.062a1.576,1.576,0,0,1-.074.494,3.515,3.515,0,0,0-1.432,1.235,6.725,6.725,0,0,0,1.16.444C285.806,305.146,286.1,305.492,286.1,306.084Z" transform="translate(-100.779 -254.639) translate(148.19 293.309) translate(-189.482 -295.912)"/><path data-name="Path 7133" d="M294.434,314.2c-1.407,0-2.444-1.16-2.444-3.407,0-3.7,3.061-7.58,5.531-7.58a.833.833,0,0,1,.642.173l.074-1.433a1.14,1.14,0,0,1,.865-.32,2.36,2.36,0,0,1,2.592,2,6.608,6.608,0,0,1-.271,1.629,28.211,28.211,0,0,0-1.186,5.309c0,.494.1.568.3.568.494,0,1.778-.938,3.357-3.16a.827.827,0,0,1,.914.765c0,1.605-4.1,5.58-5.876,5.58-1.087,0-1.778-.445-1.778-2.025a7.469,7.469,0,0,1,.074-.963C296.434,313.586,295.3,314.2,294.434,314.2Zm3.6-9.208a6.164,6.164,0,0,0-2.42,4.74c0,.914.3,1.012.642,1.012a1.38,1.38,0,0,0,.987-.617Z" transform="translate(-100.779 -254.639) translate(148.19 293.309) translate(-193.939 -295.958)"/><path data-name="Path 7134" d="M308.615,307.424c0-1.456,2.2-4.049,3.728-4.049.84,0,1.062.3,1.062,1.037a9.258,9.258,0,0,1-.987,3.555c1.8-3.111,3.506-4.222,4.592-4.222a1.581,1.581,0,0,1,1.7,1.7,6.985,6.985,0,0,1-.717,2.715,17.049,17.049,0,0,0-1.234,3.457c0,.271.123.37.346.37.494,0,2.05-1.259,3.58-3.456a.907.907,0,0,1,.963.815c0,1.555-4.172,5.728-6.443,5.728-1.457,0-1.951-.642-1.951-2,0-1.63,1.259-4.123,1.259-4.666a.262.262,0,0,0-.3-.3c-.222,0-1.036.37-2,1.7a30.571,30.571,0,0,0-.568,4.691c-.247.247-.42.321-.988.321a2.648,2.648,0,0,1-2.419-2.79,8.9,8.9,0,0,1,.617-3.086A4.06,4.06,0,0,1,308.615,307.424Z" transform="translate(-100.779 -254.639) translate(148.19 293.309) translate(-199.11 -296.511)"/><path data-name="Path 7135" d="M330.772,302.217a17.386,17.386,0,0,0,2.123-.173,1.363,1.363,0,0,1,.469,1.036,1.524,1.524,0,0,1-1.432,1.654,9.8,9.8,0,0,1-1.8-.148,27.727,27.727,0,0,0-.864,4.469c0,.593.148.864.666.864,1.012,0,2.716-1.185,4.395-3.555a.951.951,0,0,1,.988.839c0,1.457-3.777,5.876-6.617,5.876-1.9,0-3.185-.988-3.185-3.259a22.471,22.471,0,0,1,1.185-5.357c-.494-.049-.914-.1-.914-.642a1.472,1.472,0,0,1,1.555-1.481c1.234-3.235,2.543-5.555,4.2-5.555.543,0,.963.247.963.815C332.5,298.366,331.612,299.6,330.772,302.217Z" transform="translate(-100.779 -254.639) translate(148.19 293.309) translate(-204.604 -294.415)"/></g></g></g><g data-name="resta oven"><g data-name="Group 3132"><g data-name="Group 3395"><g data-name="Group 3579"><g data-name="Group 3394"><g data-name="Group 3131"><g data-name="Group 415"><rect data-name="Rectangle 226" width="198.266" height="311.999" rx="4.024" fill="#fff8f2" transform="translate(-142.094 -321.317) translate(178.558 433.262) translate(0 0)"/></g></g></g></g><g data-name="Group 3583"><g data-name="Group 3582" clip-path="url(#introduction-mobile_svg__b)" transform="translate(-142.094 -321.317) translate(178.558 433.262) translate(0 0)"><g data-name="Group 3581"><path data-name="Path 7010" d="M141.314,460.63h0a69.341,69.341,0,0,1,69.341,69.341V669.5H71.973V529.971A69.341,69.341,0,0,1,141.314,460.63Z" transform="translate(-16.501 50.425) translate(-71.973 -460.63)" fill="#db5f42"/><g data-name="Group 3580"><path data-name="Rectangle 1244" transform="translate(-16.501 50.425) translate(9.707 20.285) translate(123.379 152.407) rotate(180)" fill="#bc4835" d="M0 0H20.287V18.406H0z"/><path data-name="Rectangle 1245" transform="translate(-16.501 50.425) translate(9.707 20.285) translate(100.695 119.89) rotate(180)" fill="#d6401c" d="M0 0H20.287V18.406H0z"/><path data-name="Rectangle 1246" transform="translate(-16.501 50.425) translate(9.707 20.285) translate(24.713 30.315) rotate(180)" fill="#d6401c" d="M0 0H20.287V18.406H0z"/><path data-name="Rectangle 1247" transform="translate(-16.501 50.425) translate(9.707 20.285) translate(21.762 122.958) rotate(180)" fill="#d6401c" d="M0 0H20.287V18.406H0z"/><path data-name="Rectangle 1248" transform="translate(-16.501 50.425) translate(9.707 20.285) translate(71.443 10.843) rotate(180)" fill="#d6401c" d="M0 0H20.287V10.843H0z"/><path data-name="Rectangle 1249" transform="translate(-16.501 50.425) translate(9.707 20.285) translate(59.015 136.455) rotate(180)" fill="#d6401c" d="M0 0H20.287V18.406H0z"/><path data-name="Rectangle 1250" transform="translate(-16.501 50.425) translate(9.707 20.285) translate(20.287 167.131) rotate(180)" fill="#bc4835" d="M0 0H20.287V18.406H0z"/><path data-name="Rectangle 1251" transform="translate(-16.501 50.425) translate(9.707 20.285) translate(82.99 170.813) rotate(180)" fill="#bc4835" d="M0 0H20.287V18.406H0z"/><path data-name="Rectangle 1252" transform="translate(-16.501 50.425) translate(9.707 20.285) translate(120.06 70.501) rotate(180)" fill="#bc4835" d="M0 0H20.287V18.406H0z"/></g><path data-name="Rectangle 1253" d="M0,0H89.805a0,0,0,0,1,0,0V45.871a44.9,44.9,0,0,1-44.9,44.9h0A44.9,44.9,0,0,1,0,45.871V0A0,0,0,0,1,0,0Z" transform="translate(-16.501 50.425) translate(115.634 128.008) rotate(180)" fill="#bf3213"/><path data-name="Rectangle 1254" d="M0,0H73.669a0,0,0,0,1,0,0V48.535A36.834,36.834,0,0,1,36.834,85.37h0A36.834,36.834,0,0,1,0,48.535V0A0,0,0,0,1,0,0Z" transform="translate(-16.501 50.425) translate(97.698 126.295) rotate(-180)" fill="#52180c"/><path data-name="Rectangle 1255" transform="translate(-16.501 50.425) translate(121.244 128.212) rotate(180)" fill="#ffb164" d="M0 0H100.657V4.091H0z"/></g></g></g></g></g></g><g data-name="resta mustard"><g data-name="Group 3584" transform="translate(-142.094 -321.317) translate(193.227 595.56)"><path data-name="Rectangle 1256" d="M.79,0h.544a.79.79,0,0,1,.79.79V4.957a0,0,0,0,1,0,0H0a0,0,0,0,1,0,0V.79A.79.79,0,0,1,.79,0Z" transform="translate(6.92)" fill="#ff9f40"/><path data-name="Rectangle 1257" d="M5.937,0h4.09a5.937,5.937,0,0,1,5.937,5.937v24.09a1.9,1.9,0,0,1-1.9,1.9H1.9a1.9,1.9,0,0,1-1.9-1.9V5.937A5.937,5.937,0,0,1,5.937,0Z" transform="translate(0 8.733)" fill="#f7c046"/><path data-name="Path 7011" d="M125.12,671.58A2.124,2.124,0,0,1,123,669.455V646.281a6.6,6.6,0,0,1,1.722-4.446,6.63,6.63,0,0,0-5.928,6.592V671.6a2.124,2.124,0,0,0,2.124,2.125H132.63a2.125,2.125,0,0,0,2.125-2.125v-.021Z" transform="translate(-118.79 -633.064)" fill="#ff9f40"/><rect data-name="Rectangle 1258" width="8.419" height="5.435" rx="1.281" transform="translate(3.773 3.991)" fill="#f7c046"/><path data-name="Path 7012" d="M128.093,639.06a1.32,1.32,0,0,1-1.32-1.32v-2.8a1.276,1.276,0,0,1,.059-.29h-1.057a1.32,1.32,0,0,0-1.32,1.32v2.8a1.32,1.32,0,0,0,1.32,1.32h5.78a1.3,1.3,0,0,0,1.261-1.03Z" transform="translate(-120.683 -630.664)" fill="#ff9f40"/><path data-name="Rectangle 1259" transform="translate(4.892 16.415)" fill="#ffe1a6" d="M0 0H10.3V15.192H0z"/></g></g><g data-name="resta shelf"><path data-name="Rectangle 1260" transform="translate(-142.094 -321.317) translate(178.749 455.726) translate(0)" fill="#ceb084" d="M0 0H198.266V3.698H0z"/></g><g data-name="resta knife 2"><g data-name="Group 3585"><path data-name="Rectangle 1261" transform="translate(-142.094 -321.317) translate(196.453 451.403) translate(9.655 31.466) rotate(-176.565)" fill="#86b1b2" d="M0 0H1.269V8.81H0z"/><path data-name="Path 7013" d="M134.746,435.7l3.681.011a101.988,101.988,0,0,0,2.4-22.352,6.242,6.242,0,0,0-7.14-.186A159.4,159.4,0,0,0,134.746,435.7Z" transform="translate(-142.094 -321.317) translate(196.453 451.403) translate(-126.97 -412.141)" fill="#72383e"/><path data-name="Rectangle 1262" transform="translate(-142.094 -321.317) translate(196.453 451.403) translate(7.272 24.612) rotate(-88.189)" fill="#d1eced" d="M0 0H2.463V4.547H0z"/><path data-name="Path 7014" d="M141.161,456.718c3.15,3.216-4.615,21.329-10.4,26.622-3.075-4.3-9.486-22.017-6.232-27.554C125.9,453.462,138.5,454,141.161,456.718Z" transform="translate(-142.094 -321.317) translate(196.453 451.403) translate(-123.636 -426.237)" fill="#b0d3d6"/></g></g><g data-name="resta knife 1"><g data-name="Group 3586"><path data-name="Rectangle 1263" transform="translate(-142.094 -321.317) translate(232.565 449.999) translate(0 0) translate(12.486 35.514) rotate(-91.775)" fill="#86b1b2" d="M0 0H10.926V1.326H0z"/><path data-name="Path 7015" d="M191.243,412.9l1.547,21.457,4.639-.144.216-21.512a2.648,2.648,0,0,0-2.73-2.673l-1.113.034A2.649,2.649,0,0,0,191.243,412.9Z" transform="translate(-142.094 -321.317) translate(232.565 449.999) translate(0 0) translate(-182.34 -410.032)" fill="#72383e"/><path data-name="Rectangle 1264" d="M1.629,0h0a.36.36,0,0,1,.36.36V5.134a.36.36,0,0,1-.36.36h0A1.629,1.629,0,0,1,0,3.865V1.629A1.629,1.629,0,0,1,1.629,0Z" transform="translate(-142.094 -321.317) translate(232.565 449.999) translate(0 0) translate(10.109 25.808) rotate(-91.776)" fill="#b0d3d6"/><path data-name="Path 7016" d="M187.378,457.419l-.006.9c-.141.09-.279.182-.415.279l-.834-.332.122.891c-.111.1-.221.2-.328.3l-.874-.215.245.866c-.111.126-.218.254-.323.385l-.9-.087.367.821q-.122.186-.234.378l-.9.037.475.762c-.079.167-.153.337-.222.509l-.881.17.583.682c-.047.155-.089.312-.127.47l-.848.294.675.593q-.039.262-.063.528l-.8.416.756.489c0,.1,0,.2,0,.3,0,.076.009.15.013.226l-.729.529.818.372q.045.3.108.6l-.637.634.864.241c.056.178.117.356.182.529l-.535.721.891.109q.131.268.276.527l-.418.795.9-.029c.106.152.215.3.329.448l-.295.849.885-.162c.131.138.264.274.4.4l-.164.883.849-.294c.154.121.313.237.475.349l-.027.9.792-.419c.148.083.3.162.451.238l.1.891.722-.528c.145.056.292.108.439.157l.225.866.642-.624q.287.066.579.115l.355.823.541-.716c.181.013.363.021.547.024l.473.763.43-.79q.366-.028.723-.083l.6.674.292-.848c.236-.059.468-.126.7-.2l.7.565.146-.886c.194-.084.386-.172.573-.269l.776.447.006-.9c.14-.09.279-.182.414-.279l.834.333-.122-.891q.168-.145.328-.3l.874.215-.245-.867c.111-.125.218-.254.323-.385l.9.087-.366-.822q.121-.186.234-.377l.9-.037-.475-.762c.079-.167.153-.336.222-.509l.882-.17-.584-.682c.047-.155.089-.312.127-.469l.849-.294-.676-.594q.039-.262.063-.527l.8-.416-.757-.489c0-.1,0-.2,0-.3,0-.076-.009-.151-.013-.226l.729-.529-.818-.372q-.045-.3-.108-.6l.638-.634-.865-.24q-.084-.269-.182-.53l.535-.721-.891-.109c-.087-.179-.178-.355-.276-.527l.418-.794-.9.029c-.106-.152-.215-.3-.329-.447l.295-.849-.885.162c-.13-.139-.264-.274-.4-.4l.164-.883-.85.294q-.232-.182-.475-.35l.027-.9-.792.419c-.148-.083-.3-.162-.451-.237l-.1-.891-.723.528q-.217-.084-.439-.157l-.226-.866-.642.625q-.287-.066-.579-.115l-.355-.824-.541.716c-.181-.013-.363-.021-.547-.024l-.473-.762-.43.79c-.244.018-.485.046-.723.082l-.6-.674-.292.848q-.354.087-.7.2l-.7-.565-.147.886c-.194.084-.385.173-.573.269Z" transform="translate(-142.094 -321.317) translate(232.565 449.999) translate(0 0) translate(-179.287 -425.405)" fill="#b0d3d6"/><path data-name="Path 7017" d="M177.885,464.988l0,0s2.16-.13,2.158-.162a11.15,11.15,0,0,1,13.733-11.185,1.637,1.637,0,0,0,2.012-1.648,13.311,13.311,0,0,0-17.905,12.993Z" transform="translate(-142.094 -321.317) translate(232.565 449.999) translate(0 0) translate(-177.875 -423.782)" fill="#b0d3d6"/><path data-name="Path 7018" d="M197.3,472.448a1.247,1.247,0,1,0-1.285-1.208A1.247,1.247,0,0,0,197.3,472.448Z" transform="translate(-142.094 -321.317) translate(232.565 449.999) translate(0 0) translate(-183.938 -430.059)" fill="#d1eced"/><path data-name="Path 7019" d="M177.885,464.988l0,0,.292-.018A13.308,13.308,0,0,1,195.477,453a1.629,1.629,0,0,0,.314-1.009,13.311,13.311,0,0,0-17.905,12.993Z" transform="translate(-142.094 -321.317) translate(232.565 449.999) translate(0 0) translate(-177.875 -423.782)" fill="#b0d3d6"/></g></g><g data-name="resta chef"><g data-name="Group 3601"><path data-name="Path 249" d="M288.21,518.055s14.141,2.963,21.145,13.468a73.454,73.454,0,0,1,9.562,22.221s-11.153-.942-18.5,8.35l-2.235-3.1s-.676,52.667,2.683,71.5l-67.726.593s1.735-44.864,1.611-56.2l-1.018-16.936-8.689,3.356s1.9-24,3.916-30.6,8.484-8.888,14.411-11.447c2.937-1.262,12.1-4.222,16.106-5.872C260.414,512.992,288.21,518.055,288.21,518.055Z" transform="translate(-142.094 -321.317) translate(262.518 448.312) translate(0) translate(-223.59 -442.881)" fill="#fff"/><path data-name="Path 261" d="M357.441,576.79s5.623,16.727,5.548,17.365-2.686,20.215-15.33,13.025c0,0-9.394-19.591-9.417-23.995C338.246,583.188,349.256,574.8,357.441,576.79Z" transform="translate(-142.094 -321.317) translate(262.518 448.312) translate(0) translate(-261.424 -463.974)" fill="#ff8d61"/><path data-name="Path 262" d="M367.716,603.025l-15.33,13.026,17.056,16.871c6.128,0,9.254-4.965,8.9-9.864Z" transform="translate(-142.094 -321.317) translate(262.518 448.312) translate(0) translate(-266.151 -472.845)" fill="#ff8d61"/><path data-name="Path 274" d="M356.618,570.872l1.469,5.13a24.542,24.542,0,0,0-20.859,8.447l-2.021-4.407A24.689,24.689,0,0,1,356.618,570.872Z" transform="translate(-142.094 -321.317) translate(262.518 448.312) translate(0) translate(-260.41 -462.068)" fill="#d42247"/><path data-name="Path 5752" d="M269.646,543.63c-3.832-12.143-1.7-23.97,5.632-34.379" transform="translate(-142.094 -321.317) translate(262.518 448.312) translate(0) translate(-237.872 -441.505)" stroke-miterlimit="10" stroke="#d42247" stroke-width="4" fill="none"/><path data-name="Path 5753" d="M326.722,544.4c.4-11.929-3.574-17.651-10.189-27.585" transform="translate(-142.094 -321.317) translate(262.518 448.312) translate(0) translate(-254.168 -444.032)" stroke-miterlimit="10" stroke="#d42247" stroke-width="4" fill="none"/><path data-name="Path 5764" d="M248.745,654.052l1.923-25.237s9.836-16.678,10.264-25.232c.341-6.811-.057-31.906-.233-41.846a4.023,4.023,0,0,1,4.023-4.093h38.265a4.023,4.023,0,0,1,4.022,3.91c.268,9.573,1.053,33.885,2.25,40.537,1.5,8.34,4.264,57.735,4.264,57.735" transform="translate(-142.094 -321.317) translate(262.518 448.312) translate(0) translate(-231.513 -457.678)" fill="#d42247"/><path data-name="Path 261" d="M248.765,576.255S263.071,605.763,263,606.4s-3.454,20.961-16.1,13.772c0,0-20.068-33.584-20.092-37.988C226.811,582.187,240.581,574.261,248.765,576.255Z" transform="translate(-142.094 -321.317) translate(262.518 448.312) translate(0) translate(-224.181 -463.791)" fill="#ff8d61"/><path data-name="Path 274" d="M248.532,573.533l1.754,5.652c-7.91-.726-20.226,2.274-25.4,8.3l-2.021-4.407C228.019,576.636,239.957,573.727,248.532,573.533Z" transform="translate(-142.094 -321.317) translate(262.518 448.312) translate(0) translate(-222.863 -462.988)" fill="#d42247"/><path data-name="Path 7020" d="M301.521,520.159s5.638,13.892-5.714,17.435a15.309,15.309,0,0,1-17.489-6.455c-2.422-3.9-3.478-9.216-1.421-17.5,0,0,4.866-2.92,21.608,1.752Z" transform="translate(-142.094 -321.317) translate(262.518 448.312) translate(0) translate(-240.556 -442.67)" fill="#ffab8a"/><path data-name="Path 7021" d="M279.694,498.8l-2.249,10.178,7.3,14.7,16.546-4.185,1.746-18.764Z" transform="translate(-142.094 -321.317) translate(262.518 448.312) translate(0) translate(-241.105 -438.013)" fill="#ffab8a"/><path data-name="Path 7022" d="M285.33,408.3c-23.962-3.919-16.02,7.793-16.02,7.793s-8.159-4.254-17.065-.589-4.559,7.8-4.559,7.8c-11.642,2.467-24.029,17.336-14.031,28.2s23.946,6.41,34.515-8.593l24.44-4.848C312.782,437.058,309.291,412.22,285.33,408.3Z" transform="translate(-142.094 -321.317) translate(262.518 448.312) translate(0) translate(-225.245 -407.498)" fill="#ffe1a6"/><path data-name="Path 254" d="M307.582,464.789s1.11-5.1,3.861-6.2c3.542-1.412,1.314-10.8-3.75-12.726-6.059-2.308-15.794-16.806-34.1-1.589,0,0-14.294,11.547-7.8,20.987,7.51,10.92,9.011,14.547,9.011,14.547Z" transform="translate(-142.094 -321.317) translate(262.518 448.312) translate(0) translate(-236.645 -417.495)" fill="#763017"/><path data-name="Path 256" d="M312.346,464.122s-.539,26.126-12.031,35.464c0,0-10.864,6.195-21.279-13.827l-2.334-24.69,7.542-4.71,25.678,1.747Z" transform="translate(-142.094 -321.317) translate(262.518 448.312) translate(0) translate(-240.857 -423.828)" fill="#ffab8a"/><path data-name="Path 258" d="M310.051,460.925s-6.549,9.7-25.5,1.626c0,0-3.642-1.744-3.9,10.745l-13.343-9.128,6.91-9.388,5.01-3.711,9.642-.961,12.276,2.1,7.816,4.235Z" transform="translate(-142.094 -321.317) translate(262.518 448.312) translate(0) translate(-237.716 -421.739)" fill="#763017"/><g data-name="Group 218"><g data-name="Group 3588"><g data-name="Group 3587" clip-path="url(#introduction-mobile_svg__c)" transform="translate(-142.094 -321.317) translate(262.518 448.312) translate(0) translate(35.845 32.531)"><g data-name="Group 217"><g data-name="Group 216" transform="translate(9.978 16.074) translate(0)"><ellipse data-name="Ellipse 53" cx="1.34" cy=".998" rx="1.34" ry=".998" transform="translate(7.264 6.507) rotate(-78.877)" fill="#343c3f"/><ellipse data-name="Ellipse 54" cx="1.307" cy=".973" rx="1.307" ry=".973" transform="translate(19.413 8.861) rotate(-78.877)" fill="#343c3f"/><g data-name="Group 213"><path data-name="Path 276" d="M308.136,499.1a.548.548,0,0,1-.039-1.064,4.236,4.236,0,0,1,2.475.018,1.364,1.364,0,0,0,.925.053.99.99,0,0,0,.6-.662,1,1,0,0,0-.172-.894,5.966,5.966,0,0,1-.883-6.286.548.548,0,1,1,1.061.27.578.578,0,0,1-.034.1,4.878,4.878,0,0,0,.719,5.252,2.094,2.094,0,0,1,.359,1.858,2.072,2.072,0,0,1-1.264,1.388,2.376,2.376,0,0,1-1.592-.018,3.16,3.16,0,0,0-1.9-.023A.537.537,0,0,1,308.136,499.1Z" transform="translate(10.659 6.222) translate(-307.698 -489.847)" fill="#d17659"/></g><path data-name="Path 277" d="M303.152,507.071A35.742,35.742,0,0,0,311,508.3a3.988,3.988,0,0,1-2.716,2.832,3.827,3.827,0,0,1-3.936-1.349A6.375,6.375,0,0,1,303.152,507.071Z" transform="translate(-295.52 -489.381)" fill="#da6437"/><path data-name="Path 278" d="M310.158,508.279a38.873,38.873,0,0,1-6.913-1.207,6.125,6.125,0,0,0,.392,1.33C308.426,510.172,310.008,509.042,310.158,508.279Z" transform="translate(-295.551 -489.382)" fill="#fff"/><g data-name="Group 214"><path data-name="Path 279" d="M299.808,482.107a.711.711,0,0,1,.011-1.318,7.011,7.011,0,0,1,6.216,1.13.711.711,0,0,1-.789,1.184h0a5.624,5.624,0,0,0-4.9-.991A.71.71,0,0,1,299.808,482.107Z" transform="translate(5.115) translate(-299.371 -480.502)" fill="#763017"/></g><g data-name="Group 215"><path data-name="Path 280" d="M319.015,486.226a.72.72,0,0,1-.482-.752c.043-.392.644-.422,1.015-.558,1.276-.472,4.77.059,6.077,1.336a.75.75,0,0,1,.135,1,.689.689,0,0,1-.959.168c-.015-.011-.029-.021-.043-.033-1.192-1.1-3.7-1.481-5.588-1.13A.322.322,0,0,1,319.015,486.226Z" transform="translate(17.87 2.826) translate(-318.53 -484.746)" fill="#763017"/></g><ellipse data-name="Ellipse 55" cx="2.813" cy="3.906" rx="2.813" ry="3.906" transform="translate(0 11.5) rotate(-71.891)" fill="#f09373"/><ellipse data-name="Ellipse 56" cx="2.281" cy="3.026" rx="2.281" ry="3.026" transform="matrix(0.005, -1, 1, 0.005, 18.37, 15.245)" fill="#f09373"/></g></g></g></g></g><path data-name="Path 7024" d="M282.307,480.4s-.336-7.814-4.409-5.93c-2.6,1.205-1.559,6.214.987,10.07" transform="translate(-142.094 -321.317) translate(262.518 448.312) translate(0) translate(-240.751 -429.782)" fill="#ffab8a"/><path data-name="Path 256" d="M302.208,515.646s-9.428,8.79-19.842-11.232" transform="translate(-142.094 -321.317) translate(262.518 448.312) translate(0) translate(-242.749 -439.888)" stroke="#ff8859" stroke-width="2" stroke-miterlimit="10" fill="none"/><g data-name="Group 3589"><path data-name="Path 7025" d="M296.573,437.453c-15.921-3.246-30.4,9.808-30.4,9.808l-.17,7.146c8.8-9.956,27.052-13.124,37.024-12.059Z" transform="translate(-142.094 -321.317) translate(262.518 448.312) translate(0) translate(28.721 19.598) translate(-266.001 -436.934)" fill="#e8c174"/></g><path data-name="Path 262" d="M273.082,621.694l-16.1,13.772,38.141,24.664c6.128,0,9.254-4.966,8.9-9.865Z" transform="translate(-142.094 -321.317) translate(262.518 448.312) translate(0) translate(-234.267 -479.084)" fill="#ff8d61"/><g data-name="Group 3600"><g data-name="Group 3599"><path data-name="Path 7026" d="M328.336,643.932c.178-.157,21.371-2.323,41.425-2.463a250.766,250.766,0,0,1,42.576.7c1.813,1.609,1.212,5.639.879,7.36-.7,3.657-4.991,7.649-13.7,10.512-7.656,2.674-18.042,4.428-28.946,4.876-10.9.515-21.362-.318-29.151-2.31-8.852-2.088-13.862-5.235-14.775-8.821C326.214,652.1,326.141,645.849,328.336,643.932Z" transform="translate(-142.094 -321.317) translate(262.518 448.312) translate(0) translate(68.937 146.035) translate(-326.404 -631.527)" fill="#e58848"/><g data-name="Group 3592"><g data-name="Group 3591"><g data-name="Group 3590"><path data-name="Path 7027" d="M387.1,630.222c.578.051,1.188.075,1.759.125.2.019.4.04.59.068.842.123,1.334.414,2.131.556.187.033.394.057.609.076.439.039.914.058,1.348.1a6.366,6.366,0,0,1,.728.1c.761.164,1.617.286,2.326.466s1.106.474,1.765.673,1.329.388,1.935.6,1.352.39,1.9.621,1.114.461,1.6.706.323.615.75.874,1.194.443,1.558.713.264.593.563.872a10.272,10.272,0,0,1,.953.815c.228.286.823.53.984.824s.085.6.172.9.346.584.362.886-.321.6-.375.909.373.6.247.907.025.618-.176.923-1.465.544-1.733.844-.109.617-.445.911a12.155,12.155,0,0,1-.973.88c-.4.289-1.041.539-1.5.815s-1.081.523-1.6.789-.412.662-.993.917-1.374.475-2.009.717-1.9.3-2.588.533-1.126.525-1.861.738-1.422.437-2.2.635-1.212.558-2.029.738-2.194.051-3.046.212-1.4.5-2.286.644-1.545.494-2.453.613-2.147-.1-3.075,0-1.839.176-2.784.254-1.826.249-2.778.3-1.9,0-2.862.033-1.931.35-2.889.36-1.9-.089-2.854-.1c-.2,0-.387-.015-.575-.03-.581-.052-1.138-.154-1.722-.206-.139-.012-.277-.022-.419-.027-.93-.035-2.092.216-3.017.158-.033,0-.065-.005-.1-.009-.857-.075-1.458-.417-2.328-.5s-2.107.13-2.967.054l-.09-.009c-.872-.1-1.281-.512-2.113-.633-.115-.018-.236-.031-.362-.042-.615-.055-1.329-.051-1.936-.106-.172-.015-.338-.035-.489-.063-.8-.141-1.323-.421-2.079-.583a5.007,5.007,0,0,0-.6-.083c-.481-.043-1.035-.056-1.516-.1a4.768,4.768,0,0,1-.681-.1c-.714-.183-1.28-.437-1.939-.635s-.508-.654-1.115-.869-2.126-.186-2.677-.417-.586-.594-1.078-.839-1.569-.382-2-.64.015-.673-.351-.943-.988-.5-1.286-.778-.334-.589-.564-.876a7.093,7.093,0,0,1-.671-.861c-.159-.293.248-.619.16-.919s-.929-.557-.947-.862a4.246,4.246,0,0,1,.2-.915,5.438,5.438,0,0,1,.418-.91,4.459,4.459,0,0,1,.327-.913c.194-.3.7-.585.967-.885a11.236,11.236,0,0,1,.939-.88c.337-.294-.17-.68.225-.965s.9-.581,1.356-.858,1.908-.4,2.429-.67.556-.632,1.137-.889,1.037-.555,1.67-.8,1.754-.361,2.441-.591.989-.593,1.724-.806,2.011-.225,2.79-.422,1.168-.577,1.985-.756,1.674-.358,2.529-.521,1.625-.409,2.506-.551,2.206.072,3.116-.048,1.754-.274,2.682-.373,1.791-.273,2.733-.352,1.892-.131,2.845-.185,1.9-.046,2.858-.08,1.867.071,2.824.06,1.852-.012,2.806,0c.939.012,2.069-.323,3.011-.288.243.01.483.027.721.047.531.047,1.051.115,1.584.163.14.011.279.022.421.031.909.058,1.872.4,2.775.477s1.462.113,2.322.213c.115.014.23.025.346.035Zm-1.346-1.359a123.75,123.75,0,0,0-16.214-.342,120.292,120.292,0,0,0-15.408,1.628,75.987,75.987,0,0,0-12.889,3.3,24.058,24.058,0,0,0-8.661,4.668c-1.948,1.713-2.815,3.466-2.573,5.211.231,1.683,1.481,3.288,3.714,4.77a32.068,32.068,0,0,0,9.224,3.812,81.8,81.8,0,0,0,13.945,2.335,123.541,123.541,0,0,0,16.215.34,120.1,120.1,0,0,0,15.407-1.627,76.146,76.146,0,0,0,12.89-3.3,27.5,27.5,0,0,0,8.662-4.671c1.947-1.712,2.814-3.465,2.573-5.208-.234-1.685-1.485-3.29-3.717-4.77A32.017,32.017,0,0,0,399.7,631.2a81.986,81.986,0,0,0-13.946-2.334Z" transform="translate(-142.094 -321.317) translate(262.518 448.312) translate(0) translate(68.937 146.035) translate(0.797 0.537) translate(-328.394 -627.898)" fill="#ffad5c"/><path data-name="Path 7028" d="M356.1,653.99a81.79,81.79,0,0,1-13.945-2.335,32.067,32.067,0,0,1-9.224-3.812c-2.232-1.481-3.483-3.087-3.714-4.77-.242-1.745.624-3.5,2.573-5.21a27.472,27.472,0,0,1,8.661-4.668,75.971,75.971,0,0,1,12.889-3.3,120.273,120.273,0,0,1,15.408-1.628,123.717,123.717,0,0,1,16.214.342,82,82,0,0,1,13.946,2.334,32.023,32.023,0,0,1,9.223,3.814c2.232,1.48,3.483,3.085,3.717,4.77.24,1.742-.626,3.5-2.573,5.208a27.5,27.5,0,0,1-8.662,4.671,76.126,76.126,0,0,1-12.89,3.3,120.072,120.072,0,0,1-15.407,1.627,123.52,123.52,0,0,1-16.215-.34Zm29.414-25.865c-22.214-1.971-46.932,2.33-55.205,9.605s3.026,14.773,25.239,16.746,46.932-2.332,55.2-9.608-3.026-14.772-25.239-16.743Z" transform="translate(-142.094 -321.317) translate(262.518 448.312) translate(0) translate(68.937 146.035) translate(0.797 0.537) translate(-327.601 -627.647)" fill="#e58848"/><path data-name="Path 7029" d="M385.947,631.1c-.607-.053-1.254-.092-1.935-.133l-.65-.04c-.184-.011-.37-.025-.569-.043-.323-.029-.616-.06-.9-.091-.243-.027-.471-.053-.682-.07-.1-.009-.2-.017-.282-.022-.133.016-.349.049-.5.071a14.887,14.887,0,0,1-2.491.214c-.818-.009-1.635-.011-2.646,0-.619.008-1.165-.017-1.646-.037-.394-.018-.763-.035-1.018-.026-.441.016-.856.022-1.259.031-.519.008-1.007.016-1.441.041l-.359.022c-.814.047-1.583.091-2.325.154-.335.027-.736.086-1.16.148s-.9.132-1.421.19c-.445.046-.912.116-1.4.19-.36.053-.73.109-1.129.164a15.222,15.222,0,0,1-2.613.068c-.156-.005-.371-.014-.508-.015-.256.048-.551.121-.861.2-.395.1-.844.208-1.349.3-.678.127-1.429.283-2.372.489a4.383,4.383,0,0,0-.422.186,7.142,7.142,0,0,1-1.449.543,15.158,15.158,0,0,1-2.068.322c-.2.022-.494.053-.619.073a3.954,3.954,0,0,0-.412.216,5.71,5.71,0,0,1-1.17.546,13.575,13.575,0,0,1-1.625.393c-.244.049-.613.124-.7.157a7.538,7.538,0,0,0-.777.37c-.244.126-.495.257-.791.389a1.169,1.169,0,0,0-.265.24,2.571,2.571,0,0,1-.78.6,8.368,8.368,0,0,1-1.927.561c-.156.031-.374.076-.487.105l-.061.037c-.392.234-.8.477-1.121.708a.633.633,0,0,0,.022.193.667.667,0,0,1-.222.751l-.114.1a9.29,9.29,0,0,0-.776.734,4.079,4.079,0,0,1-.523.46,2.187,2.187,0,0,0-.408.375,1.524,1.524,0,0,0-.178.473,2.743,2.743,0,0,1-.119.39,3.835,3.835,0,0,1-.19.372,1.944,1.944,0,0,0-.216.488,2.784,2.784,0,0,1-.095.367,1.578,1.578,0,0,0-.1.488,1.511,1.511,0,0,0,.266.187c.264.167.593.37.671.632a.838.838,0,0,1-.107.592c-.047.105-.1.227-.073.28a3.478,3.478,0,0,0,.411.541c.077.089.154.178.226.272a2.244,2.244,0,0,1,.262.431,1.321,1.321,0,0,0,.257.4,2.794,2.794,0,0,0,.529.317,5.97,5.97,0,0,1,.706.416.706.706,0,0,1,.312.723.64.64,0,0,0,0,.19c.1.037.35.1.519.141a7.37,7.37,0,0,1,1.371.444,2.319,2.319,0,0,1,.714.553,1.532,1.532,0,0,0,.215.211c.129.014.321.032.457.045a9.8,9.8,0,0,1,2.188.373,1.722,1.722,0,0,1,.955.69,1.214,1.214,0,0,0,.139.17c.3.093.563.186.818.278.307.109.595.212.874.287l.056.006c.141.012.342.023.555.035.294.015.622.033.96.063a9.367,9.367,0,0,1,1.152.165,10.793,10.793,0,0,1,1.242.352,5.681,5.681,0,0,0,.7.2l.069.009c.161.013.41.023.672.033.382.015.814.032,1.264.071.234.021.446.046.648.075a6.388,6.388,0,0,1,1.7.487c.081.034.191.08.28.113.138-.007.316-.02.45-.027a15.993,15.993,0,0,1,2.453-.017,9.387,9.387,0,0,1,1.926.38c.112.032.259.074.368.1.146-.011.362-.031.517-.049a16.992,16.992,0,0,1,2.33-.106c.236.009.473.024.721.045.415.037.778.085,1.1.13.232.031.452.061.621.077a.76.76,0,0,0,.117.006c.549.008,1.06.036,1.513.058.411.023.8.045,1.112.044.128-.015.39-.061.569-.093a15.462,15.462,0,0,1,2.231-.264c.564-.02,1.088-.017,1.55-.013.433,0,.842,0,1.152-.014s.683-.067,1.091-.121c.451-.059.961-.125,1.532-.172.935-.077,1.778-.15,2.627-.241a15.8,15.8,0,0,1,2.523-.025c.144.007.34.019.481.023.133-.036.329-.1.468-.141a12.005,12.005,0,0,1,1.746-.431c.106-.022.358-.109.525-.167a10.386,10.386,0,0,1,1.63-.454,15.358,15.358,0,0,1,2.5-.2c.147,0,.344,0,.481-.011.118-.042.282-.116.4-.169a8.018,8.018,0,0,1,1.419-.51c.453-.116.891-.248,1.356-.388.231-.069.468-.141.719-.214a5.322,5.322,0,0,0,.68-.274,11.037,11.037,0,0,1,1.061-.427,12.193,12.193,0,0,1,1.936-.41c.19-.029.469-.073.576-.1.31-.118.624-.222.929-.323.35-.116.68-.226.92-.33a.952.952,0,0,0,.162-.205,1.761,1.761,0,0,1,.762-.678c.232-.12.471-.23.7-.336a9.041,9.041,0,0,0,.816-.407c.244-.148.5-.276.755-.4a5.557,5.557,0,0,0,.676-.368,4.883,4.883,0,0,0,.541-.481c.116-.113.234-.23.371-.352a.546.546,0,0,0,.131-.3,1.114,1.114,0,0,1,.265-.56,3.8,3.8,0,0,1,1.358-.7c.114-.041.276-.1.359-.135a.846.846,0,0,0,.049-.34,1.262,1.262,0,0,1,.077-.493c.026-.059-.039-.172-.1-.281a.864.864,0,0,1-.161-.575,1.511,1.511,0,0,1,.223-.494.845.845,0,0,0,.152-.364,1.186,1.186,0,0,0-.167-.423,2.1,2.1,0,0,1-.186-.413,1.9,1.9,0,0,1-.064-.418,1.021,1.021,0,0,0-.091-.43,1.31,1.31,0,0,0-.358-.291,2.618,2.618,0,0,1-.591-.487,2.885,2.885,0,0,0-.463-.4c-.15-.115-.3-.234-.445-.365a1.252,1.252,0,0,1-.333-.531.631.631,0,0,0-.176-.3,3.042,3.042,0,0,0-.554-.248,6,6,0,0,1-.938-.423,1.223,1.223,0,0,1-.545-.616.6.6,0,0,0-.135-.218c-.39-.194-.838-.381-1.31-.579l-.2-.083c-.226-.095-.545-.19-.885-.292-.3-.089-.615-.184-.922-.292-.432-.152-.916-.3-1.429-.449l-.4-.12a7.9,7.9,0,0,1-1.029-.4,4.1,4.1,0,0,0-.621-.243c-.313-.079-.712-.152-1.135-.23-.346-.063-.706-.128-1.064-.206,0,0-.046-.009-.18-.021s-.331-.023-.526-.036c-.249-.015-.533-.032-.822-.059-.393-.035-.73-.078-1.033-.132a9.5,9.5,0,0,1-1.4-.367,5.4,5.4,0,0,0-.6-.167c-.085-.013-.182-.023-.306-.035-.208-.019-.457-.033-.721-.051-.315-.019-.67-.041-1.036-.074-.174-.015-.334-.031-.49-.049a10.187,10.187,0,0,1-1.7-.357c-.164-.047-.406-.116-.515-.134Z" transform="translate(-142.094 -321.317) translate(262.518 448.312) translate(0) translate(68.937 146.035) translate(0.797 0.537) translate(-330.684 -628.667)" fill="url(#introduction-mobile_svg__d)"/><path data-name="Path 7030" d="M422.315,641.865c-.393-.055-.593-.2-.446-.32a1.575,1.575,0,0,1,.981-.115c.393.055.594.2.444.32a1.567,1.567,0,0,1-.979.116Zm3.414-.953c-.471-.067-.712-.24-.535-.384a1.9,1.9,0,0,1,1.178-.14c.471.066.71.24.534.384a1.892,1.892,0,0,1-1.177.14Zm-.088-1.39c-3.524-.505-7.713-.274-9.035.807-.206.168-.074.576-.136.75-.33.945,1.4,1.929,4.381,2.355,3.525.5,7.454.037,8.776-1.043a2.7,2.7,0,0,0,.463-2.243c-.016-.094-.064-.077-.1-.129-.513-.682-2.149-.183-4.348-.5Z" transform="translate(-142.094 -321.317) translate(262.518 448.312) translate(0) translate(68.937 146.035) translate(0.797 0.537) translate(-357.288 -631.53)" fill="#952500"/><path data-name="Path 7031" d="M387.594,631.3c.366.033.721.055,1.036.074.264.017.513.031.721.051.124.011.221.022.306.035a5.39,5.39,0,0,1,.6.166,9.493,9.493,0,0,0,1.4.367c.3.054.641.1,1.033.132.289.027.573.045.822.059.2.013.38.024.526.036s.177.021.177.021c.361.078.72.143,1.067.206.423.079.822.151,1.135.23a4.1,4.1,0,0,1,.621.243,7.922,7.922,0,0,0,1.029.4l.4.12c.513.152,1,.3,1.429.449.307.109.621.2.922.292.34.1.659.2.885.292l.2.083c.473.2.92.385,1.31.579a.6.6,0,0,1,.135.218,1.223,1.223,0,0,0,.545.616,6.014,6.014,0,0,0,.938.423,3.043,3.043,0,0,1,.554.248.631.631,0,0,1,.176.3,1.251,1.251,0,0,0,.333.531c.141.131.295.25.445.365a2.886,2.886,0,0,1,.463.4,2.615,2.615,0,0,0,.591.487,1.311,1.311,0,0,1,.358.291,1.021,1.021,0,0,1,.091.43,1.891,1.891,0,0,0,.064.418,2.1,2.1,0,0,0,.186.413,1.184,1.184,0,0,1,.167.423.845.845,0,0,1-.152.364,1.511,1.511,0,0,0-.223.494.864.864,0,0,0,.161.575c.063.109.127.222.1.281a1.26,1.26,0,0,0-.077.493.847.847,0,0,1-.049.34c-.083.035-.245.094-.359.135a3.8,3.8,0,0,0-1.357.7,1.114,1.114,0,0,0-.265.56.546.546,0,0,1-.131.3c-.138.121-.256.239-.372.352a4.881,4.881,0,0,1-.541.481,5.56,5.56,0,0,1-.676.368c-.252.124-.511.252-.755.4a9,9,0,0,1-.816.407c-.231.107-.47.216-.7.336a1.761,1.761,0,0,0-.762.678.953.953,0,0,1-.162.205c-.24.1-.57.213-.92.33-.3.1-.619.2-.929.323-.107.023-.386.067-.576.1a12.193,12.193,0,0,0-1.936.41,11.072,11.072,0,0,0-1.061.427,5.352,5.352,0,0,1-.68.274c-.251.073-.488.145-.719.214-.465.139-.9.272-1.356.388a8.018,8.018,0,0,0-1.419.51c-.119.053-.283.127-.4.169-.138.006-.334.008-.481.011a15.343,15.343,0,0,0-2.5.2,10.376,10.376,0,0,0-1.63.454c-.166.057-.419.145-.525.166a12,12,0,0,0-1.746.431c-.139.045-.336.1-.468.141-.141,0-.337-.015-.481-.023a15.767,15.767,0,0,0-2.523.025c-.85.091-1.692.164-2.627.241-.571.047-1.081.114-1.532.172-.408.053-.792.1-1.091.121s-.718.015-1.152.014c-.462,0-.986-.007-1.55.013a15.436,15.436,0,0,0-2.231.264c-.179.032-.441.079-.569.093-.31,0-.7-.021-1.112-.044-.453-.023-.963-.051-1.513-.059a.757.757,0,0,1-.117-.006c-.168-.015-.388-.045-.621-.076-.322-.045-.686-.093-1.1-.13-.248-.021-.485-.036-.721-.045a17,17,0,0,0-2.33.106c-.156.017-.371.037-.517.049-.108-.027-.256-.069-.367-.1a9.4,9.4,0,0,0-1.926-.38,16.008,16.008,0,0,0-2.453.017c-.134.007-.312.019-.45.027-.089-.033-.2-.079-.28-.113a6.39,6.39,0,0,0-1.7-.487c-.2-.029-.414-.054-.648-.075-.45-.039-.882-.055-1.264-.071-.262-.011-.511-.02-.672-.033l-.071-.009a5.727,5.727,0,0,1-.7-.2,10.8,10.8,0,0,0-1.242-.352,9.391,9.391,0,0,0-1.152-.165c-.338-.03-.666-.048-.96-.063-.213-.011-.413-.023-.555-.035l-.056-.006c-.28-.075-.567-.178-.874-.287-.255-.092-.521-.186-.818-.278a1.21,1.21,0,0,1-.139-.17,1.722,1.722,0,0,0-.955-.69,9.8,9.8,0,0,0-2.188-.373c-.136-.013-.328-.031-.457-.045a1.535,1.535,0,0,1-.215-.211,2.317,2.317,0,0,0-.714-.553,7.354,7.354,0,0,0-1.371-.444c-.17-.042-.415-.1-.519-.141a.639.639,0,0,1,0-.19.706.706,0,0,0-.312-.723,5.971,5.971,0,0,0-.706-.416,2.783,2.783,0,0,1-.529-.317,1.318,1.318,0,0,1-.257-.4,2.242,2.242,0,0,0-.262-.431c-.073-.093-.15-.182-.226-.272a3.487,3.487,0,0,1-.411-.541c-.029-.053.026-.174.073-.28a.839.839,0,0,0,.107-.592c-.079-.262-.408-.465-.671-.632a1.515,1.515,0,0,1-.266-.187,1.577,1.577,0,0,1,.1-.488,2.773,2.773,0,0,0,.095-.367,1.944,1.944,0,0,1,.216-.488,3.821,3.821,0,0,0,.19-.372,2.733,2.733,0,0,0,.118-.39,1.525,1.525,0,0,1,.178-.473,2.184,2.184,0,0,1,.408-.375,4.083,4.083,0,0,0,.523-.46,9.259,9.259,0,0,1,.776-.734l.114-.1a.668.668,0,0,0,.222-.751.632.632,0,0,1-.022-.192c.324-.23.73-.473,1.121-.708l.061-.037c.113-.029.332-.074.487-.105a8.367,8.367,0,0,0,1.927-.561,2.571,2.571,0,0,0,.78-.6,1.17,1.17,0,0,1,.265-.24c.3-.132.547-.263.791-.389a7.541,7.541,0,0,1,.777-.37c.091-.033.46-.109.7-.157a13.574,13.574,0,0,0,1.625-.394,5.694,5.694,0,0,0,1.17-.546,3.955,3.955,0,0,1,.412-.216c.125-.021.42-.051.619-.073a15.15,15.15,0,0,0,2.068-.322,7.14,7.14,0,0,0,1.449-.543,4.369,4.369,0,0,1,.422-.186c.942-.206,1.694-.362,2.372-.489.505-.095.954-.206,1.349-.3.31-.076.6-.148.861-.2.137,0,.352.009.508.015a15.216,15.216,0,0,0,2.613-.068c.4-.055.768-.11,1.129-.164.492-.075.959-.144,1.4-.19.521-.059,1-.129,1.421-.19s.825-.121,1.16-.148c.742-.063,1.511-.107,2.325-.154l.359-.022c.434-.025.922-.033,1.441-.041.4-.009.818-.015,1.259-.031.255-.009.624.008,1.018.026.481.021,1.027.045,1.646.037,1.011-.011,1.828-.009,2.646,0a14.881,14.881,0,0,0,2.491-.214c.153-.023.369-.055.5-.071.085.005.178.013.282.022.212.018.439.044.682.071.287.031.58.063.9.091.2.018.384.032.569.043l.651.04c.682.041,1.328.081,1.935.133.109.018.351.087.515.134a10.167,10.167,0,0,0,1.7.357c.156.018.316.034.49.049Zm-1.949-1.188c-.9-.079-1.848-.128-2.756-.186-.142-.009-.281-.019-.421-.031-.533-.048-1.053-.116-1.584-.163-.238-.02-.478-.037-.721-.047-.941-.035-2.071.3-3.011.288-.955-.013-1.856-.011-2.806,0s-1.872-.093-2.824-.06-1.909.023-2.858.08-1.9.107-2.845.185-1.807.252-2.733.352-1.776.252-2.682.374-2.232-.093-3.116.048-1.653.391-2.506.551-1.71.342-2.529.521-1.2.559-1.985.756-2.051.207-2.79.422-1.032.577-1.724.806-1.8.346-2.441.591-1.085.541-1.67.8-.609.62-1.136.889-1.964.391-2.429.67-.953.569-1.356.858.112.671-.225.965a11.226,11.226,0,0,0-.939.88c-.267.3-.772.586-.967.885a4.459,4.459,0,0,0-.327.913,5.437,5.437,0,0,0-.418.91,4.242,4.242,0,0,0-.2.915c.017.306.858.565.947.862s-.319.626-.16.919a7.079,7.079,0,0,0,.671.862c.23.287.267.6.564.876s.922.509,1.286.778-.079.685.351.943,1.5.4,2,.64.527.609,1.078.84,2.069.2,2.677.418.451.668,1.115.869,1.225.452,1.939.635a4.745,4.745,0,0,0,.681.1c.481.042,1.035.055,1.516.1a4.956,4.956,0,0,1,.6.083c.756.161,1.276.441,2.079.582.151.027.317.048.489.063.607.055,1.322.051,1.936.106.125.011.247.024.362.042.832.121,1.241.532,2.113.633l.09.009c.861.076,2.095-.13,2.967-.054s1.471.42,2.328.5l.1.009c.925.059,2.087-.192,3.017-.158.142.005.28.015.419.027.583.052,1.141.155,1.722.206.188.015.378.028.575.03.951.013,1.9.111,2.854.1s1.937-.326,2.889-.36,1.913.023,2.862-.033,1.839-.227,2.778-.3,1.857-.156,2.784-.254,2.168.118,3.075,0,1.569-.472,2.453-.613,1.433-.483,2.286-.644,2.226-.031,3.046-.212,1.246-.541,2.029-.738,1.463-.421,2.2-.635,1.168-.507,1.861-.738,1.949-.289,2.588-.533,1.427-.459,2.009-.717.463-.647.993-.917,1.136-.509,1.6-.789,1.1-.526,1.5-.815a12.156,12.156,0,0,0,.973-.88c.336-.294.182-.615.445-.911s1.538-.544,1.733-.844.049-.62.176-.923-.3-.605-.247-.907.393-.608.375-.909-.274-.589-.362-.886-.013-.6-.172-.9-.756-.538-.984-.824a10.262,10.262,0,0,0-.953-.815c-.3-.279-.2-.6-.563-.872s-1.129-.455-1.558-.713-.26-.628-.75-.874-1.052-.475-1.6-.706-1.294-.4-1.9-.621-1.272-.4-1.935-.6-1.05-.49-1.765-.673-1.565-.3-2.326-.466a6.406,6.406,0,0,0-.728-.1c-.433-.039-.908-.057-1.348-.1-.215-.019-.422-.043-.609-.077-.8-.142-1.289-.433-2.131-.556-.19-.028-.387-.049-.59-.068-.571-.05-1.18-.073-1.759-.125q-.174-.014-.346-.035c-.86-.1-1.438-.422-2.341-.5Z" transform="translate(-142.094 -321.317) translate(262.518 448.312) translate(0) translate(68.937 146.035) translate(0.797 0.537) translate(-329.622 -628.327)" fill="#ffad5c"/><path data-name="Path 7032" d="M425.694,637.846c-3.523-.311-7.441.37-8.752,1.524s.477,2.342,4,2.655,7.443-.37,8.753-1.524-.481-2.342-4-2.655Z" transform="translate(-142.094 -321.317) translate(262.518 448.312) translate(0) translate(68.937 146.035) translate(0.797 0.537) translate(-357.315 -631.03)" fill="#b12600"/><path data-name="Path 7033" d="M403.388,652.319c.63.055.952.269.719.475a2.588,2.588,0,0,1-1.569.272c-.629-.055-.949-.268-.715-.474a2.571,2.571,0,0,1,1.565-.272Z" transform="translate(-142.094 -321.317) translate(262.518 448.312) translate(0) translate(68.937 146.035) translate(0.797 0.537) translate(-352.381 -635.888)" fill="#e23d1c"/><path data-name="Path 7034" d="M416.258,635.68c.58.051.874.246.658.436a2.364,2.364,0,0,1-1.439.25c-.579-.051-.874-.246-.658-.436a2.376,2.376,0,0,1,1.439-.25Z" transform="translate(-142.094 -321.317) translate(262.518 448.312) translate(0) translate(68.937 146.035) translate(0.797 0.537) translate(-356.726 -630.327)" fill="#e23d1c"/><path data-name="Path 7035" d="M380.9,647.5c1.071.1,1.619.457,1.22.808a4.377,4.377,0,0,1-2.666.464c-1.072-.094-1.621-.457-1.22-.808a4.4,4.4,0,0,1,2.667-.464Z" transform="translate(-142.094 -321.317) translate(262.518 448.312) translate(0) translate(68.937 146.035) translate(0.797 0.537) translate(-344.479 -634.273)" fill="#e23d1c"/><path data-name="Path 7036" d="M389.228,639.311c.81.072,1.22.346.919.611a3.31,3.31,0,0,1-2.01.35c-.81-.072-1.221-.344-.92-.611a3.317,3.317,0,0,1,2.011-.349Z" transform="translate(-142.094 -321.317) translate(262.518 448.312) translate(0) translate(68.937 146.035) translate(0.797 0.537) translate(-347.492 -631.539)" fill="#e23d1c"/><path data-name="Path 7037" d="M412.228,644.549c.936.083,1.413.4,1.063.706a3.832,3.832,0,0,1-2.326.405c-.937-.083-1.414-.4-1.063-.706a3.824,3.824,0,0,1,2.326-.4Z" transform="translate(-142.094 -321.317) translate(262.518 448.312) translate(0) translate(68.937 146.035) translate(0.797 0.537) translate(-355.068 -633.289)" fill="#e23d1c"/><path data-name="Path 7038" d="M392.231,635.577c.326.028.489.138.37.244a1.327,1.327,0,0,1-.8.139c-.324-.029-.487-.137-.367-.243a1.314,1.314,0,0,1,.8-.14Z" transform="translate(-142.094 -321.317) translate(262.518 448.312) translate(0) translate(68.937 146.035) translate(0.797 0.537) translate(-348.92 -630.295)" fill="#e23d1c"/><path data-name="Path 7039" d="M372.156,635.2c.324.029.487.137.368.243a1.314,1.314,0,0,1-.8.139c-.321-.027-.489-.137-.368-.242a1.331,1.331,0,0,1,.8-.14Z" transform="translate(-142.094 -321.317) translate(262.518 448.312) translate(0) translate(68.937 146.035) translate(0.797 0.537) translate(-342.21 -630.168)" fill="#e23d1c"/><path data-name="Path 7040" d="M360.489,660.122c.324.03.491.139.37.245a1.332,1.332,0,0,1-.806.14c-.323-.029-.489-.138-.367-.243a1.314,1.314,0,0,1,.8-.142Z" transform="translate(-142.094 -321.317) translate(262.518 448.312) translate(0) translate(68.937 146.035) translate(0.797 0.537) translate(-338.31 -638.498)" fill="#e23d1c"/><path data-name="Path 7041" d="M423.56,656.2c.324.028.488.139.368.243a1.312,1.312,0,0,1-.8.141c-.323-.029-.489-.138-.367-.244a1.316,1.316,0,0,1,.8-.139Z" transform="translate(-142.094 -321.317) translate(262.518 448.312) translate(0) translate(68.937 146.035) translate(0.797 0.537) translate(-359.389 -637.186)" fill="#e23d1c"/><path data-name="Path 7042" d="M393.8,660.5c.611.055.924.262.7.463a2.508,2.508,0,0,1-1.524.265c-.611-.053-.923-.261-.7-.462a2.509,2.509,0,0,1,1.524-.266Z" transform="translate(-142.094 -321.317) translate(262.518 448.312) translate(0) translate(68.937 146.035) translate(0.797 0.537) translate(-349.191 -638.623)" fill="#e23d1c"/><path data-name="Path 7043" d="M344.683,646.681c1.159.1,1.749.494,1.317.873a4.743,4.743,0,0,1-2.879.5c-1.158-.1-1.748-.494-1.317-.872a4.733,4.733,0,0,1,2.879-.5Z" transform="translate(-142.094 -321.317) translate(262.518 448.312) translate(0) translate(68.937 146.035) translate(0.797 0.537) translate(-332.301 -634)" fill="#e23d1c"/><path data-name="Path 7044" d="M412.593,658.006a1.122,1.122,0,0,1-.489-.151c-.183-.137.019-.3.455-.352a2.653,2.653,0,0,1,.634,0,1.1,1.1,0,0,1,.49.151c.183.139-.022.3-.457.351a2.58,2.58,0,0,1-.633,0Zm-2.211-1.473a.949.949,0,0,1-.419-.13c-.158-.118.017-.254.392-.3a2.272,2.272,0,0,1,.541,0,.935.935,0,0,1,.418.129c.159.119-.016.254-.391.3a2.336,2.336,0,0,1-.541,0Zm2.111-.813a16.675,16.675,0,0,0-4.049,0c-1.772.227-3.033.558-3.348,1.113-.062.1,0,.37,0,.479a.9.9,0,0,0,.433.659,7.092,7.092,0,0,0,3.127.966,17.851,17.851,0,0,0,2.751-.171c.434-.019.874.222,1.3.168a9.332,9.332,0,0,0,1.748-.671c1.218-.376,1.8-.608,1.543-1.154-.067-.142.123-.549-.061-.69-.611-.459-2.081-.534-3.441-.7Z" transform="translate(-142.094 -321.317) translate(262.518 448.312) translate(0) translate(68.937 146.035) translate(0.797 0.537) translate(-353.491 -636.988)" fill="#952500"/><path data-name="Path 7045" d="M412.337,654.872a16.742,16.742,0,0,0-4.045.148c-2.783.454-4.081,1.51-2.9,2.356a6.91,6.91,0,0,0,3.13.856,16.645,16.645,0,0,0,4.045-.147c2.784-.455,4.083-1.511,2.9-2.356a6.918,6.918,0,0,0-3.131-.857Z" transform="translate(-142.094 -321.317) translate(262.518 448.312) translate(0) translate(68.937 146.035) translate(0.797 0.537) translate(-353.454 -636.725)" fill="#c65128"/><path data-name="Path 7046" d="M373.767,638.222a.892.892,0,0,1-.41-.114c-.155-.113.015-.254.381-.316a2.113,2.113,0,0,1,.537-.021.916.916,0,0,1,.41.113c.156.112-.013.254-.381.317a2.145,2.145,0,0,1-.536.021Zm5.039-.435a.421.421,0,0,1-.192-.052c-.073-.053.007-.118.176-.148a1.087,1.087,0,0,1,.249-.009.375.375,0,0,1,.19.053c.072.052-.006.119-.177.146a1.025,1.025,0,0,1-.246.01Zm-2.36-.528a.778.778,0,0,1-.352-.1c-.134-.1.011-.219.324-.272a1.89,1.89,0,0,1,.46-.019.771.771,0,0,1,.352.1c.133.1-.012.218-.326.271a1.848,1.848,0,0,1-.459.019Zm1.788-.764a13.871,13.871,0,0,0-3.427.133c-1.339.226-2.451.281-2.812.711a1.744,1.744,0,0,0-.124.655c-.024.212.232.459.505.66a5.968,5.968,0,0,0,2.592.492,12.867,12.867,0,0,0,2.312-.036c.342-.031.817.189,1.15.135a5.969,5.969,0,0,0,2.077-1.059c.573-.322.776-.171.723-.778a1.092,1.092,0,0,0-.075-.4c-.055-.063-.213.274-.3.213a5.752,5.752,0,0,0-2.625-.723Z" transform="translate(-142.094 -321.317) translate(262.518 448.312) translate(0) translate(68.937 146.035) translate(0.797 0.537) translate(-342.396 -630.587)" fill="#952500"/><path data-name="Path 7047" d="M378.229,635.651a13.856,13.856,0,0,0-3.426.134c-2.343.4-3.43,1.3-2.43,2.025a5.749,5.749,0,0,0,2.627.725,13.854,13.854,0,0,0,3.423-.134c2.344-.4,3.431-1.3,2.43-2.026a5.754,5.754,0,0,0-2.625-.724Z" transform="translate(-142.094 -321.317) translate(262.518 448.312) translate(0) translate(68.937 146.035) translate(0.797 0.537) translate(-342.44 -630.305)" fill="#b12600"/><path data-name="Path 7048" d="M424.1,650.373a.584.584,0,0,1-.255-.071c-.1-.071.007-.158.234-.2a1.405,1.405,0,0,1,.332-.013.571.571,0,0,1,.256.072c.1.07-.01.158-.236.2a1.437,1.437,0,0,1-.332.013Zm3.548.017a.78.78,0,0,1-.357-.1c-.134-.1.012-.222.328-.277a1.9,1.9,0,0,1,.465-.019.766.766,0,0,1,.355.1c.137.1-.011.224-.328.278a1.862,1.862,0,0,1-.464.017Zm-2.009-.76a.662.662,0,0,1-.306-.085c-.119-.085.009-.191.279-.238a1.577,1.577,0,0,1,.4-.016.654.654,0,0,1,.3.085c.117.084-.008.19-.28.236a1.512,1.512,0,0,1-.4.017Zm1.547-.669a11.907,11.907,0,0,0-2.971.119c-1.294.222-2.181.075-2.4.5a.947.947,0,0,0,.295,1.009,5.446,5.446,0,0,0,2.27.372,11.954,11.954,0,0,0,2.985.4c1.788-.3,2.792-1.463,2.4-2.045-.054-.079-.194.351-.3.277a4.955,4.955,0,0,0-2.279-.632Z" transform="translate(-142.094 -321.317) translate(262.518 448.312) translate(0) translate(68.937 146.035) translate(0.797 0.537) translate(-359.071 -634.756)" fill="#952500"/><path data-name="Path 7049" d="M427.218,647.854a11.954,11.954,0,0,0-2.97.119c-2.028.347-2.971,1.141-2.1,1.77a4.969,4.969,0,0,0,2.277.631,11.921,11.921,0,0,0,2.97-.119c2.029-.348,2.969-1.141,2.1-1.77a4.967,4.967,0,0,0-2.278-.631Z" transform="translate(-142.094 -321.317) translate(262.518 448.312) translate(0) translate(68.937 146.035) translate(0.797 0.537) translate(-359.091 -634.386)" fill="#c65128"/></g></g></g><g data-name="Group 3593"><path data-name="Path 7050" d="M355.578,642.549a.6.6,0,0,1-.295-.1c-.111-.1.01-.21.272-.258a1.416,1.416,0,0,1,.381-.012.589.589,0,0,1,.295.1c.111.092-.011.208-.272.255a1.381,1.381,0,0,1-.38.014Zm2.372-.156a.837.837,0,0,1-.413-.135c-.154-.133.016-.294.381-.36a1.887,1.887,0,0,1,.531-.018.84.84,0,0,1,.413.135c.156.131-.014.294-.381.359a1.86,1.86,0,0,1-.532.02Zm-.547-1.89a12.009,12.009,0,0,0-3.4.117,11.292,11.292,0,0,0-2.86,1,5.666,5.666,0,0,0-.029.65,1.324,1.324,0,0,0,.453.652,5.534,5.534,0,0,0,2.655.633,11.861,11.861,0,0,0,3.39.116c.37-.067.682-.389.985-.483,1.623-.5,2.287-1.107,1.448-1.817a5.28,5.28,0,0,0-2.642-.865Z" transform="translate(-142.094 -321.317) translate(262.518 448.312) translate(0) translate(68.937 146.035) translate(16.45 8.574) translate(-351.112 -639.956)" fill="#952500"/><path data-name="Path 7051" d="M357.4,639.788a11.973,11.973,0,0,0-3.4.117c-2.339.428-3.431,1.458-2.433,2.3a5.258,5.258,0,0,0,2.642.865,11.989,11.989,0,0,0,3.4-.117c2.34-.428,3.431-1.456,2.433-2.3a5.237,5.237,0,0,0-2.641-.866Z" transform="translate(-142.094 -321.317) translate(262.518 448.312) translate(0) translate(68.937 146.035) translate(16.45 8.574) translate(-351.141 -639.717)" fill="#b12600"/></g><g data-name="Group 3594"><path data-name="Path 7052" d="M366.047,651.213a.355.355,0,0,1-.194-.074c-.071-.07.009-.157.178-.192a.758.758,0,0,1,.247-.009.356.356,0,0,1,.194.074c.074.071-.006.157-.177.192a.79.79,0,0,1-.247.008Zm-.818-.407a.542.542,0,0,1-.3-.113c-.113-.111.009-.24.271-.294a1.164,1.164,0,0,1,.38-.015.564.564,0,0,1,.3.114c.114.111-.008.243-.271.3a1.133,1.133,0,0,1-.381.013Zm-2.968-.86a.659.659,0,0,1-.356-.137c-.135-.132.011-.289.325-.355a1.382,1.382,0,0,1,.457-.015.661.661,0,0,1,.358.136c.134.131-.012.291-.326.355a1.423,1.423,0,0,1-.459.015Zm3.356-1.241a10.544,10.544,0,0,0-3.418.115c-1.322.271-2.434.149-2.81.7a2.783,2.783,0,0,0-.1,1.029,1.592,1.592,0,0,0,.471.915,4.908,4.908,0,0,0,2.662,1.017,10.485,10.485,0,0,0,3.417-.115c1.86-.381,2.929-1.2,2.8-2.012-.035-.214.045-.818-.164-1.023-.523-.508-1.706-.473-2.861-.628Z" transform="translate(-142.094 -321.317) translate(262.518 448.312) translate(0) translate(68.937 146.035) translate(21.895 13.763) translate(-359.289 -647.88)" fill="#952500"/><path data-name="Path 7053" d="M365.612,647.6a10.5,10.5,0,0,0-3.419.115c-2.348.481-3.438,1.667-2.432,2.646a4.9,4.9,0,0,0,2.66,1.017,10.527,10.527,0,0,0,3.418-.115c2.351-.481,3.441-1.667,2.433-2.646a4.892,4.892,0,0,0-2.659-1.017Z" transform="translate(-142.094 -321.317) translate(262.518 448.312) translate(0) translate(68.937 146.035) translate(21.895 13.763) translate(-359.322 -647.511)" fill="#b12600"/></g><g data-name="Group 3595"><path data-name="Path 7054" d="M375.591,659.893a.874.874,0,0,1-.431-.134c-.164-.128.013-.289.4-.355a2.064,2.064,0,0,1,.556-.02.922.922,0,0,1,.433.133c.162.13-.018.29-.4.357a2.118,2.118,0,0,1-.559.019Zm3.479-.226a1.237,1.237,0,0,1-.605-.185c-.228-.181.024-.406.561-.5a2.99,2.99,0,0,1,.78-.026,1.258,1.258,0,0,1,.605.186c.228.182-.022.406-.56.5a2.862,2.862,0,0,1-.78.027Zm-3.384-1.418a1.078,1.078,0,0,1-.519-.158c-.2-.157.02-.349.478-.429a2.527,2.527,0,0,1,.669-.023,1.065,1.065,0,0,1,.519.158c.2.156-.017.348-.477.429a2.42,2.42,0,0,1-.67.023Zm2.586-1.2a18.638,18.638,0,0,0-4.987.174c-1.988.348-3.577.348-4.1,1.04a2.714,2.714,0,0,0-.179,1.228,1.8,1.8,0,0,0,.7.927c.756.6,1.981.753,3.665.927.176.019.752-.119.935-.107a16.95,16.95,0,0,0,4.261.2c.68-.118,1.158-.738,1.684-.915,1.517-.505,2.49-.744,2.425-1.445-.023-.283.036-.981-.3-1.248-.759-.6-2.425-.6-4.11-.778Z" transform="translate(-142.094 -321.317) translate(262.518 448.312) translate(0) translate(68.937 146.035) translate(28.361 19.363) translate(-369.001 -656.268)" fill="#952500"/><path data-name="Path 7055" d="M378.215,656.014a18.6,18.6,0,0,0-4.987.174c-3.433.6-5.035,2.033-3.574,3.2a7.987,7.987,0,0,0,3.875,1.19,18.738,18.738,0,0,0,4.985-.174c3.435-.6,5.035-2.035,3.574-3.2a7.993,7.993,0,0,0-3.874-1.19Z" transform="translate(-142.094 -321.317) translate(262.518 448.312) translate(0) translate(68.937 146.035) translate(28.361 19.363) translate(-369.039 -655.922)" fill="#c65128"/></g><g data-name="Group 3596"><path data-name="Path 7056" d="M395.366,648.254a.628.628,0,0,1-.306-.1c-.115-.1.011-.221.283-.273a1.371,1.371,0,0,1,.4-.015.621.621,0,0,1,.307.1c.115.1-.011.222-.282.274a1.383,1.383,0,0,1-.4.015Zm2.473-.83a.85.85,0,0,1-.426-.141c-.162-.138.014-.31.395-.383a1.946,1.946,0,0,1,.555-.019.839.839,0,0,1,.428.141c.161.138-.014.309-.395.381a1.966,1.966,0,0,1-.557.021Zm-2.406-1.083a.711.711,0,0,1-.365-.12c-.138-.118.013-.265.337-.328a1.577,1.577,0,0,1,.476-.017.712.712,0,0,1,.364.12c.141.119-.009.266-.336.328a1.612,1.612,0,0,1-.476.017Zm1.853-.913a12.207,12.207,0,0,0-3.556.132c-1.3.246-2.348.306-2.77.788a1.27,1.27,0,0,0,.252,1.655,5.411,5.411,0,0,0,2.731.9,12.318,12.318,0,0,0,3.555-.133,4.185,4.185,0,0,0,2.8-1.359,1.41,1.41,0,0,0-.222-1.516c-.538-.458-1.6-.34-2.786-.472Z" transform="translate(-142.094 -321.317) translate(262.518 448.312) translate(0) translate(68.937 146.035) translate(42.843 11.81) translate(-390.753 -644.838)" fill="#952500"/><path data-name="Path 7057" d="M397.274,644.649a12.29,12.29,0,0,0-3.554.133c-2.431.461-3.558,1.554-2.519,2.442a5.376,5.376,0,0,0,2.73.9,12.265,12.265,0,0,0,3.557-.131c2.43-.463,3.557-1.555,2.515-2.443a5.371,5.371,0,0,0-2.728-.905Z" transform="translate(-142.094 -321.317) translate(262.518 448.312) translate(0) translate(68.937 146.035) translate(42.843 11.81) translate(-390.774 -644.578)" fill="#b12600"/></g><g data-name="Group 3597"><path data-name="Path 7058" d="M402.62,637.554a.209.209,0,0,1-.12-.049c-.047-.045,0-.1.111-.126a.447.447,0,0,1,.156-.006.218.218,0,0,1,.119.048c.047.047,0,.1-.11.127a.454.454,0,0,1-.156.005Zm-1.178-.46a.233.233,0,0,1-.12-.049c-.045-.046.005-.1.111-.126a.431.431,0,0,1,.157-.007.2.2,0,0,1,.12.049c.047.045,0,.1-.108.125a.472.472,0,0,1-.159.007Zm-.977-.483a.349.349,0,0,1-.185-.075c-.069-.071.005-.158.171-.194a.682.682,0,0,1,.24-.009.337.337,0,0,1,.184.074c.071.073-.006.16-.168.2a.745.745,0,0,1-.242.009Zm2.637.308a.454.454,0,0,1-.256-.1c-.1-.1.005-.224.235-.272a.877.877,0,0,1,.335-.013.452.452,0,0,1,.258.1c.1.1-.007.224-.236.273a.99.99,0,0,1-.336.011Zm-1.441-.537a.394.394,0,0,1-.22-.089c-.087-.086.005-.192.2-.234a.909.909,0,0,1,.29-.011.409.409,0,0,1,.22.089c.085.086-.005.192-.2.235a.86.86,0,0,1-.289.01Zm1.119-.649a6.275,6.275,0,0,0-2.151.079c-1.47.322-2.328.688-1.721,1.5a2.856,2.856,0,0,0,1.863.913,6.278,6.278,0,0,0,2.153-.079c1.466-.323,2.166-1.5,1.531-2.141-.328-.331-.959-.167-1.674-.268Z" transform="translate(-142.094 -321.317) translate(262.518 448.312) translate(0) translate(68.937 146.035) translate(48.142 5.365) translate(-398.712 -635.157)" fill="#952500"/><path data-name="Path 7059" d="M402.753,634.955a6.246,6.246,0,0,0-2.15.08c-1.469.322-2.148,1.1-1.513,1.746a2.958,2.958,0,0,0,1.655.662,6.268,6.268,0,0,0,2.151-.078c1.469-.322,2.145-1.1,1.512-1.746a2.957,2.957,0,0,0-1.655-.663Z" transform="translate(-142.094 -321.317) translate(262.518 448.312) translate(0) translate(68.937 146.035) translate(48.142 5.365) translate(-398.759 -634.897)" fill="#b12600"/></g><g data-name="Group 3598"><path data-name="Path 7060" d="M386.454,628.661c.577.051,1.188.074,1.759.125.2.018.4.04.588.069.844.12,1.337.413,2.131.555.189.033.4.057.611.077.439.039.913.057,1.35.1a5.982,5.982,0,0,1,.726.1c.761.162,1.617.286,2.326.465s1.105.474,1.764.673,1.328.388,1.934.6,1.353.391,1.9.622,1.11.46,1.6.705.321.615.75.873,1.192.446,1.558.714.265.594.561.872a9.961,9.961,0,0,1,.951.814c.229.288.825.531.985.826s.083.6.172.9.346.583.364.885-.322.6-.377.911.372.6.247.9.023.619-.176.922-1.464.547-1.732.846-.109.616-.444.911a12.131,12.131,0,0,1-.973.88c-.4.288-1.041.538-1.5.815s-1.081.522-1.6.789-.411.662-.991.916-1.375.473-2.009.717-1.9.306-2.589.534-1.123.524-1.862.736-1.419.439-2.2.635-1.211.56-2.03.739-2.191.05-3.044.211-1.4.5-2.288.645-1.544.491-2.452.612-2.148-.1-3.076,0-1.838.177-2.783.253-1.826.25-2.778.306-1.9,0-2.862.034-1.932.351-2.892.36-1.9-.088-2.85-.1c-.2,0-.39-.014-.579-.03-.579-.053-1.134-.156-1.72-.205q-.206-.019-.418-.027c-.929-.037-2.094.214-3.018.157l-.1-.008c-.857-.077-1.457-.418-2.325-.5s-2.111.131-2.969.053l-.089-.007c-.876-.1-1.282-.513-2.113-.634-.117-.017-.237-.032-.364-.043-.613-.054-1.327-.051-1.935-.1-.174-.017-.337-.035-.491-.063-.8-.143-1.324-.422-2.077-.583a5.525,5.525,0,0,0-.6-.083c-.483-.043-1.037-.055-1.518-.1a4.322,4.322,0,0,1-.682-.1c-.712-.182-1.279-.437-1.938-.636s-.507-.652-1.115-.868-2.127-.187-2.677-.417-.586-.6-1.078-.839-1.568-.381-2-.64.015-.675-.35-.945-.991-.5-1.288-.778-.334-.589-.562-.875a6.536,6.536,0,0,1-.671-.862c-.158-.292.249-.62.157-.918s-.928-.557-.945-.862a4.137,4.137,0,0,1,.2-.915,5.092,5.092,0,0,1,.416-.912,4.617,4.617,0,0,1,.326-.912c.194-.3.7-.585.969-.886a11.178,11.178,0,0,1,.937-.879c.336-.3-.171-.681.226-.965s.9-.581,1.358-.858,1.907-.4,2.429-.671.557-.631,1.136-.887,1.035-.556,1.668-.8,1.754-.363,2.443-.592,1,.2,1.732-.016,2.025-.318,2.8-.515,1.212-.561,2.028-.739,1.613-.556,2.465-.716,1.539-.269,2.423-.411,2.435.408,3.343.286,1.6-.705,2.529-.8,1.868-.176,2.812-.254,1.861-.069,2.816-.124,1.862.124,2.821.092,1.875-.027,2.833-.039,1.932-.052,2.884-.04,2.041-.167,2.98-.132c.247.009.46-.181.7-.161.531.046,1.109.228,1.642.274.14.012.292-.027.435-.02.566.037,1.4-.686,2.642-.577.9.081,1.482.4,2.342.5.114.013.23.025.346.034Zm-1.346-1.361a123.879,123.879,0,0,0-16.215-.34,120.23,120.23,0,0,0-15.408,1.626,75.97,75.97,0,0,0-12.89,3.3c-3.8,1.383-6.477,3.449-8.662,4.667a6.97,6.97,0,0,0-3.779,6.392c.233,1.684,2.728,3.407,4.961,4.888a32.062,32.062,0,0,0,9.223,3.813,82.222,82.222,0,0,0,13.946,2.336,123.94,123.94,0,0,0,16.213.34,120.415,120.415,0,0,0,15.409-1.626,76.175,76.175,0,0,0,12.891-3.3,27.553,27.553,0,0,0,8.661-4.669,8.271,8.271,0,0,0,2.535-6.508c-.233-1.684-1.483-3.29-3.717-4.772a32.024,32.024,0,0,0-9.222-3.811,81.908,81.908,0,0,0-13.946-2.336Z" transform="translate(-142.094 -321.317) translate(262.518 448.312) translate(0) translate(68.937 146.035) translate(1.145) translate(-328.123 -626.839)" fill="#ffad5c"/></g></g></g></g><path data-name="Path 7061" d="M316.939,653.479s.74-4.025,4.289-10.593c2.1-3.893,4.162-1.38,3.4,1.781-1,4.143-1.069,8.979,2.267,10.767s17.082-3.157,22.511,4.776c2.16,3.155-5.137,8.547-16.789,11.86-11.892,3.381-18.6,2.18-22.938-2.933l-7.967-6.076.357-1.005a21.29,21.29,0,0,1,10.858-12.078h0Z" transform="translate(-142.094 -321.317) translate(262.518 448.312) translate(-249.215 -485.504)" fill="#ffe6c4"/><g data-name="Group 3603"><g data-name="Group 3602" clip-path="url(#introduction-mobile_svg__e)" transform="translate(-142.094 -321.317) translate(262.518 448.312) translate(52.497 155.399)"><path data-name="Path 7062" d="M298.8,663.96s11.227,14.121,19.447,14.121,29.7-3.4,28.985-11.272c0,0,.14-2.422,1.981,2.24s.491,11.165.491,11.165l-33.617,11.042-16.808-5.4-5.644-10.8-.122-9.57Z" transform="translate(-298.97 -648.609)" fill="#f7cb90"/></g></g><path data-name="Path 7064" d="M248.842,662.407s-9.254.937-12.115-4.616" transform="translate(-142.094 -321.317) translate(262.518 448.312) translate(-227.496 -491.148)" stroke-miterlimit="10" stroke="#d42247" stroke-width="4" fill="none"/><g data-name="Group 3604"><path data-name="Path 7065" d="M300.951,424.459s7.468,19.548,22.808,17.042" transform="translate(-142.094 -321.317) translate(262.518 448.312) translate(51.99 11.293) translate(-300.951 -424.459)" fill="#ffe1a6"/><path data-name="Path 7066" d="M300.951,424.459c1.481,2.154,2.941,4.221,4.5,6.176a42.265,42.265,0,0,0,5.023,5.393,27.276,27.276,0,0,0,2.857,2.2,21.9,21.9,0,0,0,3.16,1.7,21.223,21.223,0,0,0,7.264,1.573,12.741,12.741,0,0,1-3.881.823,14.066,14.066,0,0,1-4.041-.408,16.5,16.5,0,0,1-3.806-1.522,20.311,20.311,0,0,1-3.314-2.369,24.618,24.618,0,0,1-4.993-6.223A23.642,23.642,0,0,1,300.951,424.459Z" transform="translate(-142.094 -321.317) translate(262.518 448.312) translate(51.99 11.293) translate(-300.951 -424.459)" fill="#e8c174"/></g><g data-name="Group 3605"><path data-name="Path 7067" d="M256.569,431.244s1.844,6.443,13.195,6.638" transform="translate(-142.094 -321.317) translate(262.518 448.312) translate(22.436 15.81) translate(-256.564 -431.244)" fill="#ffe1a6"/><path data-name="Path 7068" d="M256.566,431.244a15.034,15.034,0,0,0,2.939,2.376,21.364,21.364,0,0,0,3.137,1.6c1.077.485,2.234.839,3.408,1.281.6.186,1.2.391,1.816.631a13.778,13.778,0,0,1,1.895.755,11.921,11.921,0,0,1-2.01.549,16.345,16.345,0,0,1-2.062.128,11.575,11.575,0,0,1-4.087-.893,9.346,9.346,0,0,1-3.487-2.49A5.874,5.874,0,0,1,256.566,431.244Z" transform="translate(-142.094 -321.317) translate(262.518 448.312) translate(22.436 15.81) translate(-256.561 -431.244)" fill="#e8c174"/></g></g><g data-name="resta table"><g data-name="Group 3137"><path data-name="Rectangle 1066" transform="translate(-142.094 -321.317) translate(159.562 636.222) translate(18.996 10.771)" fill="#ffb844" d="M0 0H199.055V101.33H0z"/><path data-name="Path 5765" d="M274.416,706.006c-25.841,34.649-67.463,60.435-115.435,62.831-20.327.653-44.4-3.349-61.606-14.439v52.938H295.563V706.01Z" transform="translate(-142.094 -321.317) translate(159.562 636.222) translate(-77.968 -695.172)" fill="#eda734"/><path data-name="Path 5766" d="M298.438,701.66H79.6a11.659,11.659,0,0,1-11.369-11.926H309.8C309.8,696.317,304.715,701.66,298.438,701.66Z" transform="translate(-142.094 -321.317) translate(159.562 636.222) translate(-68.226 -689.734)" fill="#72333a"/></g></g><g data-name="resta tent"><g data-name="Group 3621"><path data-name="Rectangle 1266" transform="translate(-142.094 -321.317) translate(158.959 411) translate(0 21.808) translate(128.924)" fill="#ad4b34" d="M0 0H18.418V12.069H0z"/><path data-name="Rectangle 1267" transform="translate(-142.094 -321.317) translate(158.959 411) translate(0 21.808) translate(92.088)" fill="#ad4b34" d="M0 0H18.418V12.069H0z"/><path data-name="Rectangle 1268" transform="translate(-142.094 -321.317) translate(158.959 411) translate(0 21.808) translate(55.253)" fill="#ad4b34" d="M0 0H18.418V12.069H0z"/><path data-name="Rectangle 1269" transform="translate(-142.094 -321.317) translate(158.959 411) translate(0 21.808) translate(202.595)" fill="#ad4b34" d="M0 0H18.418V12.069H0z"/><path data-name="Rectangle 1270" transform="translate(-142.094 -321.317) translate(158.959 411) translate(0 21.808) translate(165.759)" fill="#ad4b34" d="M0 0H18.418V12.069H0z"/><path data-name="Rectangle 1271" transform="translate(-142.094 -321.317) translate(158.959 411) translate(0 21.808) translate(18.418)" fill="#ad4b34" d="M0 0H18.418V12.069H0z"/><path data-name="Rectangle 1272" fill="#d1b288" d="M0 0H18.418V12.069H0z" transform="translate(-142.094 -321.317) translate(158.959 411) translate(0 21.808)"/><path data-name="Rectangle 1273" transform="translate(-142.094 -321.317) translate(158.959 411) translate(0 21.808) translate(36.835)" fill="#d1b288" d="M0 0H18.418V12.069H0z"/><path data-name="Rectangle 1274" transform="translate(-142.094 -321.317) translate(158.959 411) translate(0 21.808) translate(73.671)" fill="#d1b288" d="M0 0H18.418V12.069H0z"/><path data-name="Rectangle 1275" transform="translate(-142.094 -321.317) translate(158.959 411) translate(0 21.808) translate(110.506)" fill="#d1b288" d="M0 0H18.418V12.069H0z"/><path data-name="Rectangle 1276" transform="translate(-142.094 -321.317) translate(158.959 411) translate(0 21.808) translate(147.341)" fill="#d1b288" d="M0 0H18.418V12.069H0z"/><path data-name="Rectangle 1277" transform="translate(-142.094 -321.317) translate(158.959 411) translate(0 21.808) translate(184.177)" fill="#d1b288" d="M0 0H18.418V12.069H0z"/><path data-name="Rectangle 1278" transform="translate(-142.094 -321.317) translate(158.959 411) translate(0 21.808) translate(221.012)" fill="#d1b288" d="M0 0H18.418V12.069H0z"/></g><g data-name="Group 3622"><path data-name="Path 7112" d="M113.4,373.7l14.518-22.246H112.727L94.983,373.7Z" transform="translate(-142.094 -321.317) translate(158.959 411) translate(-76.566 -351.457)" fill="#db5f42"/><path data-name="Path 7113" d="M168.727,373.7l8.065-22.246H161.6L150.309,373.7Z" transform="translate(-142.094 -321.317) translate(158.959 411) translate(-95.056 -351.457)" fill="#db5f42"/><path data-name="Path 7114" d="M224.053,373.7l1.613-22.246H210.474L205.635,373.7Z" transform="translate(-142.094 -321.317) translate(158.959 411) translate(-113.547 -351.457)" fill="#db5f42"/><path data-name="Path 7115" d="M330.656,373.7l-11.292-22.246H304.173l8.065,22.246Z" transform="translate(-142.094 -321.317) translate(158.959 411) translate(-146.479 -351.457)" fill="#db5f42"/><path data-name="Path 7116" d="M278.569,373.7l-4.839-22.246H258.538l1.613,22.246Z" transform="translate(-142.094 -321.317) translate(158.959 411) translate(-131.227 -351.457)" fill="#db5f42"/><path data-name="Path 7117" d="M382.743,373.7,365,351.457H349.807L364.325,373.7Z" transform="translate(-142.094 -321.317) translate(158.959 411) translate(-161.73 -351.457)" fill="#db5f42"/><path data-name="Path 7118" d="M103.482,351.457H88.291L67.321,373.7H85.738Z" transform="translate(-142.094 -321.317) translate(158.959 411) translate(-67.321 -351.457)" fill="#ffd9a6"/><path data-name="Path 7119" d="M141.064,373.7l11.291-22.246H137.164L122.646,373.7Z" transform="translate(-142.094 -321.317) translate(158.959 411) translate(-85.811 -351.457)" fill="#ffd9a6"/><path data-name="Path 7120" d="M196.39,373.7l4.839-22.246H186.038L177.972,373.7Z" transform="translate(-142.094 -321.317) translate(158.959 411) translate(-104.301 -351.457)" fill="#ffd9a6"/><path data-name="Path 7121" d="M251.716,373.7,250.1,351.457H234.911L233.3,373.7Z" transform="translate(-142.094 -321.317) translate(158.959 411) translate(-122.792 -351.457)" fill="#ffd9a6"/><path data-name="Path 7122" d="M304.612,373.7l-8.065-22.246H281.355l4.839,22.246Z" transform="translate(-142.094 -321.317) translate(158.959 411) translate(-138.853 -351.457)" fill="#ffd9a6"/><path data-name="Path 7123" d="M356.7,373.7l-14.518-22.246H326.99L338.281,373.7Z" transform="translate(-142.094 -321.317) translate(158.959 411) translate(-154.105 -351.457)" fill="#ffd9a6"/><path data-name="Path 7124" d="M372.625,351.457,390.368,373.7h18.418l-20.97-22.246Z" transform="translate(-142.094 -321.317) translate(158.959 411) translate(-169.356 -351.457)" fill="#ffd9a6"/></g></g></g></g></svg>